<svg width="118" height="118" viewBox="0 0 118 118" fill="none" xmlns="http://www.w3.org/2000/svg">
<rect width="118" height="118" fill="#C1FF72"/>
<mask id="path-1-outside-1_885_2" maskUnits="userSpaceOnUse" x="23.8945" y="16.7207" width="68" height="90" fill="black">
<rect fill="white" x="23.8945" y="16.7207" width="68" height="90"/>
<path d="M83.1532 31.7425C84.6329 34.1569 85.4896 36.9606 85.4896 39.9201V83.6896C85.4896 92.4124 78.1687 98.6429 69.2902 99.4217C66.4865 99.7332 58.6983 99.8111 55.583 99.8111C52.5456 99.8111 49.7419 99.6554 47.0939 99.4217C42.6547 99.0323 38.5269 97.6304 35.5674 94.7488C34.4771 93.8142 33.6983 92.8797 33.231 91.7893C31.7512 89.4529 30.8945 86.6491 30.8945 83.6896V39.9201C30.8945 31.1973 38.2154 24.9668 47.0939 24.1101C49.8977 23.8765 52.7793 23.7207 55.9724 23.7207C58.9319 23.7207 66.6422 23.8765 69.2902 24.1101C73.7295 24.4995 77.8572 25.9014 80.8167 28.783C81.907 29.7176 82.6859 30.7301 83.1532 31.7425ZM69.2902 78.7052V44.5151C68.9008 42.0229 67.3432 40.3095 64.7731 40.3095H51.6111C49.041 40.3095 47.4833 42.0229 47.0939 44.4372V78.7052C47.4833 81.1195 49.1189 82.8329 51.6111 82.8329H64.7731C67.3432 82.8329 68.9008 81.1195 69.2902 78.7052Z"/>
</mask>
<path d="M83.1532 31.7425C84.6329 34.1569 85.4896 36.9606 85.4896 39.9201V83.6896C85.4896 92.4124 78.1687 98.6429 69.2902 99.4217C66.4865 99.7332 58.6983 99.8111 55.583 99.8111C52.5456 99.8111 49.7419 99.6554 47.0939 99.4217C42.6547 99.0323 38.5269 97.6304 35.5674 94.7488C34.4771 93.8142 33.6983 92.8797 33.231 91.7893C31.7512 89.4529 30.8945 86.6491 30.8945 83.6896V39.9201C30.8945 31.1973 38.2154 24.9668 47.0939 24.1101C49.8977 23.8765 52.7793 23.7207 55.9724 23.7207C58.9319 23.7207 66.6422 23.8765 69.2902 24.1101C73.7295 24.4995 77.8572 25.9014 80.8167 28.783C81.907 29.7176 82.6859 30.7301 83.1532 31.7425ZM69.2902 78.7052V44.5151C68.9008 42.0229 67.3432 40.3095 64.7731 40.3095H51.6111C49.041 40.3095 47.4833 42.0229 47.0939 44.4372V78.7052C47.4833 81.1195 49.1189 82.8329 51.6111 82.8329H64.7731C67.3432 82.8329 68.9008 81.1195 69.2902 78.7052Z" stroke="#5E17EB" stroke-width="12.169" mask="url(#path-1-outside-1_885_2)"/>
</svg>
