<svg width="24" height="38" viewBox="0 0 24 38" fill="none" xmlns="http://www.w3.org/2000/svg">
<path fill-rule="evenodd" clip-rule="evenodd" d="M23.6962 21.8119C24.0889 22.3553 23.699 23.1148 23.0285 23.1123L13.0541 23.0748C12.6793 23.0734 12.3531 22.8181 12.2618 22.4545L12.0776 21.7209H13.4731L13.4736 21.7229L21.9851 21.7549L8.95319 3.72199L12.1748 16.5507H10.7793L6.96453 1.35984C6.74453 0.483778 7.89546 -0.0523474 8.42455 0.679773L23.6962 21.8119Z" fill="#34A974"/>
<path fill-rule="evenodd" clip-rule="evenodd" d="M11.3091 15.2021H11.8368L11.9654 15.714L12.1755 16.5503H10.7527L10.7538 16.5556H2.27769L15.3127 34.5928L14.7913 32.5174L13.4118 27.0262L12.0789 21.7204H13.4744L14.7245 26.6964L16.104 32.1877L17.3018 36.9554C17.5218 37.8315 16.3709 38.3677 15.8418 37.6356L0.56945 16.5025C0.177547 15.9602 0.565017 15.2021 1.23411 15.2021H11.3091Z" fill="#524C91"/>
<rect x="7.45029" y="18.3916" width="1.51587" height="1.51587" rx="0.108276" fill="#524C91"/>
<rect x="15.5169" y="18.3916" width="1.51587" height="1.51587" rx="0.108276" fill="#34A974"/>
<path d="M12.0791 21.7207H13.4867L13.8386 23.0742H12.4191L12.0791 21.7207Z" fill="#34A974"/>
</svg>
