<svg viewBox="0 0 240 240" fill="none" xmlns="http://www.w3.org/2000/svg">
<path fill-rule="evenodd" clip-rule="evenodd" d="M220.235 120C220.235 175.358 175.358 220.235 120 220.235C64.6416 220.235 19.7647 175.358 19.7647 120C19.7647 64.6416 64.6416 19.7647 120 19.7647C175.358 19.7647 220.235 64.6416 220.235 120ZM240 120C240 186.274 186.274 240 120 240C53.7258 240 0 186.274 0 120C0 53.7258 53.7258 0 120 0C186.274 0 240 53.7258 240 120ZM120.642 40.9631C115.587 40.6083 111.201 44.419 110.846 49.4746C110.491 54.5302 114.302 58.9162 119.358 59.271C131.784 60.143 145.792 63.5445 156.859 72.2433C167.574 80.666 176.602 94.8873 177.895 119.77C178.158 124.831 182.474 128.721 187.535 128.458C192.596 128.195 196.486 123.879 196.223 118.817C194.692 89.3468 183.603 69.921 168.2 57.8143C153.149 45.9836 135.04 41.9734 120.642 40.9631Z" fill="url(#paint0_linear_417_174)"/>
<defs>
<linearGradient id="paint0_linear_417_174" x1="195.529" y1="26.8235" x2="36" y2="206.118" gradientUnits="userSpaceOnUse">
<stop stop-color="#34A974"/>
<stop offset="1" stop-color="#524C91"/>
</linearGradient>
</defs>
</svg>
