<svg xmlns="http://www.w3.org/2000/svg" width="121" height="38" viewBox="0 0 121 38" fill="none">
<path fill-rule="evenodd" clip-rule="evenodd" d="M23.6962 21.8119C24.0889 22.3553 23.699 23.1148 23.0285 23.1123L13.0541 23.0748C12.6793 23.0734 12.3531 22.8181 12.2618 22.4545L12.0776 21.7209H13.4731L13.4736 21.7229L21.9851 21.7549L8.95319 3.72199L12.1748 16.5507H10.7793L6.96453 1.35984C6.74453 0.483778 7.89546 -0.0523474 8.42455 0.679773L23.6962 21.8119Z" fill="#34A974"/>
<path fill-rule="evenodd" clip-rule="evenodd" d="M11.3091 15.2021H11.8368L11.9654 15.714L12.1755 16.5503H10.7527L10.7538 16.5556H2.27769L15.3127 34.5928L14.7913 32.5174L13.4118 27.0262L12.0789 21.7204H13.4744L14.7245 26.6964L16.104 32.1877L17.3018 36.9554C17.5218 37.8315 16.3709 38.3677 15.8418 37.6356L0.56945 16.5025C0.177547 15.9602 0.565017 15.2021 1.23411 15.2021H11.3091Z" fill="#524C91"/>
<rect x="7.45029" y="18.3916" width="1.51587" height="1.51587" rx="0.108276" fill="#524C91"/>
<rect x="15.5169" y="18.3916" width="1.51587" height="1.51587" rx="0.108276" fill="#34A974"/>
<path d="M12.0791 21.7207H13.4867L13.8386 23.0742H12.4191L12.0791 21.7207Z" fill="#34A974"/>
<path d="M111.731 19.2935C111.731 19.657 111.86 20.0356 112.118 20.4293C112.39 20.8231 112.701 21.1563 113.049 21.4289C113.685 21.9287 114.427 22.1786 115.275 22.1786C116.445 22.1786 117.427 21.6879 118.22 20.7066C118.429 20.448 118.795 20.3585 119.081 20.528L119.751 20.9246C120.05 21.1017 120.148 21.4919 119.941 21.7715C119.422 22.4747 118.813 23.0345 118.115 23.4507C117.252 23.9656 116.305 24.2231 115.275 24.2231C114.503 24.2231 113.768 24.0792 113.072 23.7915C112.375 23.4886 111.762 23.0721 111.232 22.542C110.702 22.012 110.285 21.3986 109.982 20.7019C109.695 20.0053 109.551 19.2708 109.551 18.4984C109.551 17.726 109.695 16.9915 109.982 16.2948C110.285 15.583 110.702 14.9621 111.232 14.432C111.747 13.902 112.352 13.4931 113.049 13.2053C113.761 12.9176 114.503 12.7737 115.275 12.7737C116.048 12.7737 116.782 12.9176 117.479 13.2053C118.191 13.4931 118.804 13.902 119.319 14.432C120.44 15.583 121 16.9158 121 18.4302C121 18.5385 120.996 18.6491 120.989 18.7622C120.97 19.0688 120.705 19.2935 120.397 19.2935H111.731ZM115.275 14.6365C114.654 14.6365 114.071 14.7728 113.526 15.0454C112.981 15.318 112.542 15.6815 112.209 16.1358C112.024 16.3907 111.893 16.6559 111.815 16.9312C111.723 17.2612 112.009 17.5443 112.352 17.5443H118.198C118.541 17.5443 118.828 17.2608 118.731 16.9319C118.65 16.6563 118.513 16.391 118.319 16.1358C118.001 15.6815 117.57 15.318 117.025 15.0454C116.479 14.7728 115.896 14.6365 115.275 14.6365Z" fill="#FFF"/>
<path d="M106.882 16.1358C106.579 16.1358 106.329 15.9108 106.205 15.6336C106.164 15.5416 106.116 15.4515 106.061 15.3634C105.773 14.8636 105.206 14.6137 104.357 14.6137C103.903 14.6137 103.555 14.6668 103.312 14.7728C102.994 14.8939 102.752 15.0681 102.585 15.2953C102.434 15.5224 102.358 15.7723 102.358 16.0449C102.358 16.3781 102.479 16.681 102.722 16.9536C102.979 17.2414 103.396 17.3928 103.971 17.4079C104.986 17.4534 105.804 17.5745 106.425 17.7714C107.061 17.9683 107.545 18.3091 107.879 18.7937C108.227 19.2783 108.401 19.9598 108.401 20.8382C108.401 21.7318 108.06 22.5041 107.379 23.1554C107.046 23.4734 106.652 23.7309 106.197 23.9277C105.758 24.1246 105.296 24.2231 104.812 24.2231H104.471C103.259 24.2231 102.283 23.8747 101.541 23.1781C101.083 22.7547 100.755 22.2018 100.557 21.5191C100.451 21.1548 100.746 20.8155 101.125 20.8155H101.922C102.216 20.8155 102.457 21.0291 102.588 21.2922C102.665 21.447 102.763 21.5835 102.881 21.7015C103.229 22.0346 103.714 22.2012 104.335 22.2012C104.501 22.2012 104.622 22.1937 104.698 22.1785C105.228 22.1482 105.645 22.0044 105.948 21.7469C106.251 21.4743 106.402 21.1411 106.402 20.7474C106.402 20.2021 106.235 19.8462 105.902 19.6796C105.569 19.5131 104.925 19.4298 103.971 19.4298C102.775 19.4298 101.859 19.0511 101.222 18.2939C100.708 17.7184 100.45 16.9915 100.45 16.1131C100.45 15.9162 100.458 15.7647 100.473 15.6587C100.594 14.6743 100.995 13.9247 101.677 13.4097C102.373 12.8797 103.29 12.6146 104.426 12.6146C105.259 12.6146 105.985 12.7964 106.606 13.1599C107.046 13.4325 107.424 13.8111 107.742 14.2957C108.04 14.7719 108.235 15.3651 108.328 16.0752C108.331 16.0978 108.319 16.1199 108.299 16.1301C108.291 16.1338 108.222 16.1358 108.214 16.1358H106.882Z" fill="#FFF"/>
<path d="M97.6022 24.1094C97.2594 24.1094 96.9814 23.8315 96.9814 23.4887V22.3829C96.4968 22.9433 95.9365 23.3901 95.3004 23.7233C94.6643 24.0564 93.9904 24.223 93.2786 24.223C92.491 24.223 91.7489 24.0792 91.0523 23.7914C90.3708 23.5037 89.765 23.0948 89.2349 22.5647C88.7049 22.0498 88.2884 21.444 87.9855 20.7473C87.6977 20.0355 87.5539 19.2934 87.5539 18.5211C87.5539 17.7487 87.6977 17.0142 87.9855 16.3175C88.2884 15.6057 88.7049 14.9848 89.2349 14.4547C89.765 13.9246 90.3708 13.5157 91.0523 13.228C91.7489 12.9402 92.491 12.7964 93.2786 12.7964C94.0055 12.7964 94.687 12.9478 95.3231 13.2507C95.9743 13.5536 96.5271 13.9776 96.9814 14.5229V13.6443C96.9814 13.3014 97.2594 13.0235 97.6022 13.0235H98.4052C98.748 13.0235 99.026 13.3014 99.026 13.6443V23.4887C99.026 23.8315 98.748 24.1094 98.4052 24.1094H97.6022ZM93.2786 14.8182C92.7788 14.8182 92.2942 14.9166 91.8247 15.1135C91.3703 15.2952 90.9766 15.5527 90.6434 15.8859C90.3102 16.2191 90.0452 16.6204 89.8483 17.0899C89.6665 17.5442 89.5757 18.0213 89.5757 18.5211C89.5757 19.0208 89.6665 19.4979 89.8483 19.9522C90.0452 20.4066 90.3102 20.8003 90.6434 21.1335C90.9766 21.4667 91.3703 21.7317 91.8247 21.9286C92.2942 22.1103 92.7788 22.2012 93.2786 22.2012C93.7783 22.2012 94.2554 22.1103 94.7097 21.9286C95.1641 21.7317 95.5578 21.4667 95.891 21.1335C96.2242 20.8003 96.4817 20.4066 96.6634 19.9522C96.8603 19.4979 96.9587 19.0208 96.9587 18.5211C96.9587 18.0213 96.8603 17.5442 96.6634 17.0899C96.4817 16.6204 96.2242 16.2191 95.891 15.8859C95.5578 15.5527 95.1641 15.2952 94.7097 15.1135C94.2554 14.9166 93.7783 14.8182 93.2786 14.8182Z" fill="#FFF"/>
<path d="M80.656 24.2231C79.9442 24.2231 79.2551 24.0565 78.5888 23.7233C77.9375 23.3901 77.3696 22.9358 76.885 22.3603V23.4888C76.885 23.8316 76.6071 24.1095 76.2642 24.1095H75.5066C75.1638 24.1095 74.8859 23.8316 74.8859 23.4888V9.64614C74.8859 9.30331 75.1638 9.02539 75.5066 9.02539H76.2642C76.6071 9.02539 76.885 9.30331 76.885 9.64614V14.3866C77.2182 13.9171 77.7104 13.5006 78.3616 13.1372C79.0279 12.7737 79.7928 12.592 80.656 12.592C81.4284 12.592 82.1705 12.7434 82.8823 13.0463C83.5941 13.3492 84.2074 13.7657 84.7224 14.2957C85.2524 14.841 85.6613 15.4695 85.9491 16.1813C86.252 16.8779 86.4034 17.62 86.4034 18.4075C86.4034 19.1951 86.252 19.9447 85.9491 20.6565C85.6613 21.3532 85.2524 21.9741 84.7224 22.5193C84.2074 23.0494 83.5941 23.4659 82.8823 23.7688C82.1705 24.0717 81.4284 24.2231 80.656 24.2231ZM80.656 14.6592C80.1562 14.6592 79.6716 14.7577 79.2021 14.9545C78.7478 15.1363 78.354 15.4013 78.0208 15.7496C77.6876 16.098 77.4226 16.5069 77.2257 16.9764C77.0288 17.4307 76.9304 17.9078 76.9304 18.4075C76.9304 19.4222 77.2939 20.3082 78.0208 21.0654C78.354 21.4138 78.7478 21.6864 79.2021 21.8832C79.6716 22.0801 80.1562 22.1786 80.656 22.1786C81.1558 22.1786 81.6328 22.0801 82.0872 21.8832C82.5415 21.6864 82.9353 21.4138 83.2685 21.0654C83.9954 20.3082 84.3589 19.4222 84.3589 18.4075C84.3589 17.9078 84.2604 17.4307 84.0636 16.9764C83.8667 16.5069 83.6017 16.098 83.2685 15.7496C82.9353 15.4013 82.5415 15.1363 82.0872 14.9545C81.6328 14.7577 81.1558 14.6592 80.656 14.6592Z" fill="#FFF"/>
<path d="M67.1111 28.9482C65.5233 28.9482 64.1236 28.3252 62.9119 27.0791C62.6471 26.8067 62.7254 26.3653 63.0519 26.171L63.7772 25.7395C64.0366 25.5852 64.3663 25.6437 64.5849 25.8518C65.3212 26.5531 66.1633 26.9037 67.1111 26.9037C67.6109 26.9037 68.0879 26.8052 68.5423 26.6084C68.9966 26.4115 69.3904 26.1389 69.7236 25.7906C70.0567 25.4422 70.3142 25.0409 70.4959 24.5865C70.6928 24.1322 70.7913 23.6551 70.7913 23.1554V22.6102C69.7614 23.7612 68.5271 24.3367 67.0884 24.3367C66.316 24.3367 65.5739 24.1776 64.8621 23.8596C64.1655 23.5264 63.5597 23.0797 63.0447 22.5193C62.5298 21.9589 62.1209 21.3229 61.818 20.6111C61.5303 19.8993 61.3864 19.1647 61.3864 18.4075C61.3864 17.6351 61.5303 16.9082 61.818 16.2267C62.1209 15.53 62.5374 14.9167 63.0675 14.3866C63.5975 13.8717 64.2033 13.4703 64.8848 13.1826C65.5815 12.8948 66.316 12.751 67.0884 12.751C67.9213 12.751 68.6634 12.9327 69.3147 13.2962C69.9659 13.6596 70.4581 14.0686 70.7913 14.5229V13.5762C70.7913 13.2333 71.0692 12.9554 71.412 12.9554H72.215C72.5579 12.9554 72.8358 13.2333 72.8358 13.5762V23.1554C72.8358 23.9429 72.6843 24.685 72.3815 25.3816C72.0937 26.0783 71.6848 26.6992 71.1547 27.2444C70.6398 27.7745 70.0265 28.191 69.3147 28.4939C68.618 28.7968 67.8835 28.9482 67.1111 28.9482ZM67.0884 14.8182C66.5886 14.8182 66.1115 14.9167 65.6572 15.1135C65.2029 15.2953 64.8091 15.5603 64.4759 15.9086C64.1427 16.257 63.8777 16.6659 63.6808 17.1354C63.4839 17.5897 63.3855 18.0668 63.3855 18.5665C63.3855 19.0663 63.4839 19.5509 63.6808 20.0204C63.8777 20.4748 64.1427 20.8685 64.4759 21.2017C64.8091 21.5349 65.2029 21.7999 65.6572 21.9968C66.1115 22.1937 66.5886 22.2921 67.0884 22.2921C67.5882 22.2921 68.0652 22.1937 68.5196 21.9968C68.9739 21.7999 69.3677 21.5349 69.7008 21.2017C70.034 20.8685 70.2915 20.4748 70.4732 20.0204C70.6701 19.5509 70.7685 19.0663 70.7685 18.5665C70.7685 18.0668 70.6701 17.5897 70.4732 17.1354C70.2915 16.6659 70.034 16.257 69.7008 15.9086C69.3677 15.5603 68.9739 15.2953 68.5196 15.1135C68.0652 14.9167 67.5882 14.8182 67.0884 14.8182Z" fill="#FFF"/>
<path d="M58.3997 24.1095C58.0569 24.1095 57.779 23.8316 57.779 23.4887V17.2944C57.779 16.6129 57.5291 16.0222 57.0293 15.5224C56.5447 15.0378 55.954 14.7955 55.2574 14.7955C54.5759 14.7955 53.9852 15.0454 53.4854 15.5452C53.2583 15.7723 53.0765 16.0449 52.9402 16.363C52.8039 16.6659 52.7358 16.9763 52.7358 17.2944V23.4887C52.7358 23.8316 52.4579 24.1095 52.115 24.1095H51.3801C51.0373 24.1095 50.7594 23.8316 50.7594 23.4887V13.6443C50.7594 13.3015 51.0373 13.0236 51.3801 13.0236H52.115C52.4579 13.0236 52.7358 13.3015 52.7358 13.6443V13.955C53.0235 13.6066 53.4021 13.3189 53.8716 13.0917C54.3411 12.8646 54.803 12.751 55.2574 12.751C55.8632 12.751 56.4387 12.8721 56.9839 13.1144C57.5442 13.3416 58.0364 13.6672 58.4605 14.0913C58.8694 14.5002 59.1874 14.9848 59.4146 15.5452C59.6569 16.0904 59.7781 16.6734 59.7781 17.2944V23.4887C59.7781 23.8316 59.5001 24.1095 59.1573 24.1095H58.3997Z" fill="#FFF"/>
<path d="M47.3393 24.1095C46.9965 24.1095 46.7186 23.8316 46.7186 23.4888V13.3717C46.7186 13.0289 46.9965 12.751 47.3393 12.751H48.006C48.3489 12.751 48.6268 13.0289 48.6268 13.3717V23.4888C48.6268 23.8316 48.3489 24.1095 48.006 24.1095H47.3393Z" fill="#FFF"/>
<path d="M39.3464 24.3139C38.4832 24.3139 37.7638 24.1776 37.1883 23.905C36.6128 23.6173 36.0903 23.1705 35.6208 22.5647V28.3274C35.6208 28.6703 35.3429 28.9482 35.0001 28.9482H34.2198C33.8769 28.9482 33.599 28.6703 33.599 28.3274V13.6443C33.599 13.3015 33.8769 13.0235 34.2198 13.0235H35.0001C35.3429 13.0235 35.6208 13.3015 35.6208 13.6443V14.6137C36.0903 14.0382 36.6507 13.5763 37.3019 13.228C37.9531 12.8797 38.6346 12.7055 39.3464 12.7055C40.1188 12.7055 40.8533 12.8569 41.55 13.1598C42.2618 13.4476 42.8751 13.8641 43.39 14.4093C43.9201 14.9545 44.329 15.583 44.6168 16.2948C44.9197 16.9915 45.0711 17.7335 45.0711 18.5211C45.0711 19.3086 44.9197 20.0507 44.6168 20.7473C44.329 21.444 43.9201 22.0649 43.39 22.6101C42.8751 23.1402 42.2618 23.5567 41.55 23.8596C40.8533 24.1625 40.1188 24.3139 39.3464 24.3139ZM39.3464 14.7728C38.8466 14.7728 38.3696 14.8712 37.9152 15.0681C37.4609 15.2498 37.0671 15.5148 36.734 15.8632C36.4008 16.2115 36.1357 16.6204 35.9389 17.0899C35.742 17.5442 35.6435 18.0213 35.6435 18.5211C35.6435 19.0208 35.742 19.4979 35.9389 19.9522C36.1357 20.4066 36.4008 20.8079 36.734 21.1562C37.0671 21.5046 37.4609 21.7772 37.9152 21.9741C38.3696 22.1709 38.8466 22.2694 39.3464 22.2694C39.8462 22.2694 40.3232 22.1709 40.7776 21.9741C41.2319 21.7772 41.6257 21.5046 41.9589 21.1562C42.2921 20.8079 42.5495 20.4066 42.7313 19.9522C42.9281 19.4979 43.0266 19.0208 43.0266 18.5211C43.0266 18.0213 42.9281 17.5442 42.7313 17.0899C42.5495 16.6204 42.2921 16.2115 41.9589 15.8632C41.6257 15.5148 41.2319 15.2498 40.7776 15.0681C40.3232 14.8712 39.8462 14.7728 39.3464 14.7728Z" fill="#FFF"/>
<path d="M46.6974 9.34574C46.6974 9.19871 46.7624 9.07953 46.9094 9.07953H48.4525C48.5996 9.07953 48.7187 9.19871 48.7187 9.34574V10.8888C48.7187 11.0359 48.5996 11.1551 48.4525 11.1551H46.9636C46.8165 11.1551 46.6974 11.0359 46.6974 10.8888V9.34574Z" fill="#FFF"/>
</svg>