<svg width="1020" height="140" viewBox="0 0 1020 140" fill="none" xmlns="http://www.w3.org/2000/svg">
<mask id="path-1-outside-1_850_262" maskUnits="userSpaceOnUse" x="0" y="0" width="884" height="140" fill="black">
<rect fill="white" width="884" height="140"/>
<path d="M92.4143 22.6432C94.748 26.4484 96.099 30.8674 96.099 35.5319V104.517C96.099 118.265 84.5536 128.085 70.5518 129.312C66.1302 129.803 53.8479 129.926 48.9349 129.926C44.1448 129.926 39.7232 129.681 35.5472 129.312C28.5463 128.699 22.0367 126.489 17.3694 121.947C15.6499 120.474 14.4216 119.001 13.6847 117.283C11.3511 113.6 10 109.181 10 104.517V35.5319C10 21.7839 21.5454 11.964 35.5472 10.6137C39.9688 10.2455 44.5133 10 49.549 10C54.2163 10 66.3758 10.2455 70.5518 10.6137C77.5527 11.2275 84.0623 13.437 88.7296 17.9787C90.4492 19.4517 91.6774 21.0474 92.4143 22.6432ZM70.5518 96.6611V42.7741C69.9377 38.8461 67.4812 36.1456 63.4281 36.1456H42.671C38.6178 36.1456 36.1613 38.8461 35.5472 42.6513V96.6611C36.1613 100.466 38.7406 103.167 42.671 103.167H63.4281C67.4812 103.167 69.9377 100.466 70.5518 96.6611Z"/>
<path d="M172.72 29.6399C176.65 16.9967 190.897 10.2455 204.654 14.5417L174.316 112.496C172.965 116.669 170.632 120.106 167.561 122.807C164.245 125.63 160.192 127.717 155.647 127.717C151.103 127.717 147.172 125.63 143.856 122.807C140.786 120.106 138.329 116.669 137.101 112.496L106.764 14.5417C120.52 10.2455 134.767 16.9967 138.698 29.6399L155.647 91.7511L172.72 29.6399Z"/>
<path d="M239.08 82.1766V100.466H282.806C282.806 115.564 271.137 127.717 256.153 127.717H238.344C223.85 127.717 212.305 116.178 212.305 101.694V38.7234C212.305 23.9934 224.219 12.0867 238.835 12.0867H288.701C288.701 27.1849 278.752 39.3371 263.768 39.3371H239.08V56.8903H271.629L265.61 82.1766H239.08Z"/>
<path d="M360.164 89.1733L383.132 123.42C371.586 131.154 357.707 128.453 349.97 116.915L334.74 94.2061H323.194V95.1881C323.194 113.232 310.543 127.717 295.068 127.717V37.0049C295.068 22.2749 308.947 10.3683 321.597 10.3683H338.547C344.811 10.3683 350.707 11.3502 355.865 13.1915C361.024 15.0327 365.568 17.6105 369.13 21.1702C372.815 24.7299 375.64 29.0262 377.605 34.1816C379.57 39.3371 380.553 45.1063 380.553 51.612V51.9803C380.553 58.8542 379.57 64.9917 377.359 70.2699C375.148 75.5482 372.201 79.9671 368.27 83.5269C365.937 85.7364 363.234 87.5776 360.164 89.1733ZM323.194 37.4959V68.797H336.459C341.495 68.797 345.425 67.324 348.25 64.6235C351.075 61.8002 352.549 58.1178 352.549 53.4533V53.085C352.549 48.0523 351.075 44.1243 348.25 41.5466C345.425 38.8461 341.495 37.4959 336.336 37.4959H323.194Z"/>
<path d="M457.807 37.7414C457.807 23.7479 470.212 12.455 485.32 12.455V104.272C485.32 118.142 473.037 129.435 457.807 129.435V83.0359H425.996V104.272C425.996 118.142 413.714 129.435 398.484 129.435V61.8002C398.361 60.941 398.361 59.959 398.361 58.977H398.484V37.7414C398.484 23.7479 410.766 12.455 425.996 12.455V58.977H457.807V37.7414Z"/>
<path d="M565.2 27.1849C571.341 14.419 585.22 8.28151 599.099 15.0327L551.075 114.951C544.934 127.839 531.178 133.977 517.176 127.226L534.985 90.0326L498.63 14.7872C512.632 8.03601 528.967 14.419 535.108 27.1849L550.215 58.486L565.2 27.1849Z"/>
<path d="M688.495 35.0409C690.46 40.0736 691.443 45.8428 691.443 52.3485V52.594C691.443 59.468 690.46 65.4827 688.249 70.7609C686.161 75.9164 683.091 80.3354 679.283 83.8951C675.476 87.4548 670.931 90.1553 665.527 91.8738C660.246 93.5923 654.473 94.5743 648.332 94.5743H634.576V95.5563C634.576 113.355 622.048 127.717 606.695 127.717V37.8641C606.695 23.2569 620.451 11.3502 632.979 11.3502H649.683C656.07 11.3502 661.842 12.3322 667.001 14.1735C672.16 16.0147 676.458 18.5925 680.143 22.1522C683.828 25.5892 686.53 29.8854 688.495 35.0409ZM663.685 54.067V53.6988C663.685 48.666 662.211 44.8608 659.386 42.2831C656.561 39.7054 652.631 38.3551 647.595 38.3551H634.576V69.2879H647.718C652.754 69.2879 656.561 67.9377 659.386 65.1145C662.211 62.414 663.685 58.7315 663.685 54.067Z"/>
<path d="M730.469 82.1766V100.466H774.194C774.194 115.564 762.526 127.717 747.541 127.717H729.732C715.239 127.717 703.693 116.178 703.693 101.694V38.7234C703.693 23.9934 715.607 12.0867 730.223 12.0867H780.089C780.089 27.1849 770.141 39.3371 755.156 39.3371H730.469V56.8903H763.017L756.999 82.1766H730.469Z"/>
<path d="M831.472 10.982C855.668 10.982 873.969 26.5712 873.969 53.4533V89.4188C873.969 110.654 855.668 128.576 831.472 128.576H790.08V36.2684C790.08 23.2569 799.169 12.455 812.803 11.1047L813.724 10.982H815.505C815.628 10.982 815.628 10.982 815.628 10.982H831.472ZM849.035 85.3681V54.1898C849.035 44.4926 841.175 35.9001 831.472 35.9001H815.628V103.167C815.628 103.29 815.628 103.535 815.628 103.658H831.472C841.175 103.658 849.035 95.0653 849.035 85.3681Z"/>
</mask>
<path d="M92.4143 22.6432C94.748 26.4484 96.099 30.8674 96.099 35.5319V104.517C96.099 118.265 84.5536 128.085 70.5518 129.312C66.1302 129.803 53.8479 129.926 48.9349 129.926C44.1448 129.926 39.7232 129.681 35.5472 129.312C28.5463 128.699 22.0367 126.489 17.3694 121.947C15.6499 120.474 14.4216 119.001 13.6847 117.283C11.3511 113.6 10 109.181 10 104.517V35.5319C10 21.7839 21.5454 11.964 35.5472 10.6137C39.9688 10.2455 44.5133 10 49.549 10C54.2163 10 66.3758 10.2455 70.5518 10.6137C77.5527 11.2275 84.0623 13.437 88.7296 17.9787C90.4492 19.4517 91.6774 21.0474 92.4143 22.6432ZM70.5518 96.6611V42.7741C69.9377 38.8461 67.4812 36.1456 63.4281 36.1456H42.671C38.6178 36.1456 36.1613 38.8461 35.5472 42.6513V96.6611C36.1613 100.466 38.7406 103.167 42.671 103.167H63.4281C67.4812 103.167 69.9377 100.466 70.5518 96.6611Z" fill="#C1FF72"/>
<path d="M172.72 29.6399C176.65 16.9967 190.897 10.2455 204.654 14.5417L174.316 112.496C172.965 116.669 170.632 120.106 167.561 122.807C164.245 125.63 160.192 127.717 155.647 127.717C151.103 127.717 147.172 125.63 143.856 122.807C140.786 120.106 138.329 116.669 137.101 112.496L106.764 14.5417C120.52 10.2455 134.767 16.9967 138.698 29.6399L155.647 91.7511L172.72 29.6399Z" fill="#C1FF72"/>
<path d="M239.08 82.1766V100.466H282.806C282.806 115.564 271.137 127.717 256.153 127.717H238.344C223.85 127.717 212.305 116.178 212.305 101.694V38.7234C212.305 23.9934 224.219 12.0867 238.835 12.0867H288.701C288.701 27.1849 278.752 39.3371 263.768 39.3371H239.08V56.8903H271.629L265.61 82.1766H239.08Z" fill="#C1FF72"/>
<path d="M360.164 89.1733L383.132 123.42C371.586 131.154 357.707 128.453 349.97 116.915L334.74 94.2061H323.194V95.1881C323.194 113.232 310.543 127.717 295.068 127.717V37.0049C295.068 22.2749 308.947 10.3683 321.597 10.3683H338.547C344.811 10.3683 350.707 11.3502 355.865 13.1915C361.024 15.0327 365.568 17.6105 369.13 21.1702C372.815 24.7299 375.64 29.0262 377.605 34.1816C379.57 39.3371 380.553 45.1063 380.553 51.612V51.9803C380.553 58.8542 379.57 64.9917 377.359 70.2699C375.148 75.5482 372.201 79.9671 368.27 83.5269C365.937 85.7364 363.234 87.5776 360.164 89.1733ZM323.194 37.4959V68.797H336.459C341.495 68.797 345.425 67.324 348.25 64.6235C351.075 61.8002 352.549 58.1178 352.549 53.4533V53.085C352.549 48.0523 351.075 44.1243 348.25 41.5466C345.425 38.8461 341.495 37.4959 336.336 37.4959H323.194Z" fill="#C1FF72"/>
<path d="M457.807 37.7414C457.807 23.7479 470.212 12.455 485.32 12.455V104.272C485.32 118.142 473.037 129.435 457.807 129.435V83.0359H425.996V104.272C425.996 118.142 413.714 129.435 398.484 129.435V61.8002C398.361 60.941 398.361 59.959 398.361 58.977H398.484V37.7414C398.484 23.7479 410.766 12.455 425.996 12.455V58.977H457.807V37.7414Z" fill="#C1FF72"/>
<path d="M565.2 27.1849C571.341 14.419 585.22 8.28151 599.099 15.0327L551.075 114.951C544.934 127.839 531.178 133.977 517.176 127.226L534.985 90.0326L498.63 14.7872C512.632 8.03601 528.967 14.419 535.108 27.1849L550.215 58.486L565.2 27.1849Z" fill="#C1FF72"/>
<path d="M688.495 35.0409C690.46 40.0736 691.443 45.8428 691.443 52.3485V52.594C691.443 59.468 690.46 65.4827 688.249 70.7609C686.161 75.9164 683.091 80.3354 679.283 83.8951C675.476 87.4548 670.931 90.1553 665.527 91.8738C660.246 93.5923 654.473 94.5743 648.332 94.5743H634.576V95.5563C634.576 113.355 622.048 127.717 606.695 127.717V37.8641C606.695 23.2569 620.451 11.3502 632.979 11.3502H649.683C656.07 11.3502 661.842 12.3322 667.001 14.1735C672.16 16.0147 676.458 18.5925 680.143 22.1522C683.828 25.5892 686.53 29.8854 688.495 35.0409ZM663.685 54.067V53.6988C663.685 48.666 662.211 44.8608 659.386 42.2831C656.561 39.7054 652.631 38.3551 647.595 38.3551H634.576V69.2879H647.718C652.754 69.2879 656.561 67.9377 659.386 65.1145C662.211 62.414 663.685 58.7315 663.685 54.067Z" fill="#C1FF72"/>
<path d="M730.469 82.1766V100.466H774.194C774.194 115.564 762.526 127.717 747.541 127.717H729.732C715.239 127.717 703.693 116.178 703.693 101.694V38.7234C703.693 23.9934 715.607 12.0867 730.223 12.0867H780.089C780.089 27.1849 770.141 39.3371 755.156 39.3371H730.469V56.8903H763.017L756.999 82.1766H730.469Z" fill="#C1FF72"/>
<path d="M831.472 10.982C855.668 10.982 873.969 26.5712 873.969 53.4533V89.4188C873.969 110.654 855.668 128.576 831.472 128.576H790.08V36.2684C790.08 23.2569 799.169 12.455 812.803 11.1047L813.724 10.982H815.505C815.628 10.982 815.628 10.982 815.628 10.982H831.472ZM849.035 85.3681V54.1898C849.035 44.4926 841.175 35.9001 831.472 35.9001H815.628V103.167C815.628 103.29 815.628 103.535 815.628 103.658H831.472C841.175 103.658 849.035 95.0653 849.035 85.3681Z" fill="#C1FF72"/>
<path d="M92.4143 22.6432C94.748 26.4484 96.099 30.8674 96.099 35.5319V104.517C96.099 118.265 84.5536 128.085 70.5518 129.312C66.1302 129.803 53.8479 129.926 48.9349 129.926C44.1448 129.926 39.7232 129.681 35.5472 129.312C28.5463 128.699 22.0367 126.489 17.3694 121.947C15.6499 120.474 14.4216 119.001 13.6847 117.283C11.3511 113.6 10 109.181 10 104.517V35.5319C10 21.7839 21.5454 11.964 35.5472 10.6137C39.9688 10.2455 44.5133 10 49.549 10C54.2163 10 66.3758 10.2455 70.5518 10.6137C77.5527 11.2275 84.0623 13.437 88.7296 17.9787C90.4492 19.4517 91.6774 21.0474 92.4143 22.6432ZM70.5518 96.6611V42.7741C69.9377 38.8461 67.4812 36.1456 63.4281 36.1456H42.671C38.6178 36.1456 36.1613 38.8461 35.5472 42.6513V96.6611C36.1613 100.466 38.7406 103.167 42.671 103.167H63.4281C67.4812 103.167 69.9377 100.466 70.5518 96.6611Z" stroke="#5E17EB" stroke-width="19.1911" mask="url(#path-1-outside-1_850_262)"/>
<path d="M172.72 29.6399C176.65 16.9967 190.897 10.2455 204.654 14.5417L174.316 112.496C172.965 116.669 170.632 120.106 167.561 122.807C164.245 125.63 160.192 127.717 155.647 127.717C151.103 127.717 147.172 125.63 143.856 122.807C140.786 120.106 138.329 116.669 137.101 112.496L106.764 14.5417C120.52 10.2455 134.767 16.9967 138.698 29.6399L155.647 91.7511L172.72 29.6399Z" stroke="#5E17EB" stroke-width="19.1911" mask="url(#path-1-outside-1_850_262)"/>
<path d="M239.08 82.1766V100.466H282.806C282.806 115.564 271.137 127.717 256.153 127.717H238.344C223.85 127.717 212.305 116.178 212.305 101.694V38.7234C212.305 23.9934 224.219 12.0867 238.835 12.0867H288.701C288.701 27.1849 278.752 39.3371 263.768 39.3371H239.08V56.8903H271.629L265.61 82.1766H239.08Z" stroke="#5E17EB" stroke-width="19.1911" mask="url(#path-1-outside-1_850_262)"/>
<path d="M360.164 89.1733L383.132 123.42C371.586 131.154 357.707 128.453 349.97 116.915L334.74 94.2061H323.194V95.1881C323.194 113.232 310.543 127.717 295.068 127.717V37.0049C295.068 22.2749 308.947 10.3683 321.597 10.3683H338.547C344.811 10.3683 350.707 11.3502 355.865 13.1915C361.024 15.0327 365.568 17.6105 369.13 21.1702C372.815 24.7299 375.64 29.0262 377.605 34.1816C379.57 39.3371 380.553 45.1063 380.553 51.612V51.9803C380.553 58.8542 379.57 64.9917 377.359 70.2699C375.148 75.5482 372.201 79.9671 368.27 83.5269C365.937 85.7364 363.234 87.5776 360.164 89.1733ZM323.194 37.4959V68.797H336.459C341.495 68.797 345.425 67.324 348.25 64.6235C351.075 61.8002 352.549 58.1178 352.549 53.4533V53.085C352.549 48.0523 351.075 44.1243 348.25 41.5466C345.425 38.8461 341.495 37.4959 336.336 37.4959H323.194Z" stroke="#5E17EB" stroke-width="19.1911" mask="url(#path-1-outside-1_850_262)"/>
<path d="M457.807 37.7414C457.807 23.7479 470.212 12.455 485.32 12.455V104.272C485.32 118.142 473.037 129.435 457.807 129.435V83.0359H425.996V104.272C425.996 118.142 413.714 129.435 398.484 129.435V61.8002C398.361 60.941 398.361 59.959 398.361 58.977H398.484V37.7414C398.484 23.7479 410.766 12.455 425.996 12.455V58.977H457.807V37.7414Z" stroke="#5E17EB" stroke-width="19.1911" mask="url(#path-1-outside-1_850_262)"/>
<path d="M565.2 27.1849C571.341 14.419 585.22 8.28151 599.099 15.0327L551.075 114.951C544.934 127.839 531.178 133.977 517.176 127.226L534.985 90.0326L498.63 14.7872C512.632 8.03601 528.967 14.419 535.108 27.1849L550.215 58.486L565.2 27.1849Z" stroke="#5E17EB" stroke-width="19.1911" mask="url(#path-1-outside-1_850_262)"/>
<path d="M688.495 35.0409C690.46 40.0736 691.443 45.8428 691.443 52.3485V52.594C691.443 59.468 690.46 65.4827 688.249 70.7609C686.161 75.9164 683.091 80.3354 679.283 83.8951C675.476 87.4548 670.931 90.1553 665.527 91.8738C660.246 93.5923 654.473 94.5743 648.332 94.5743H634.576V95.5563C634.576 113.355 622.048 127.717 606.695 127.717V37.8641C606.695 23.2569 620.451 11.3502 632.979 11.3502H649.683C656.07 11.3502 661.842 12.3322 667.001 14.1735C672.16 16.0147 676.458 18.5925 680.143 22.1522C683.828 25.5892 686.53 29.8854 688.495 35.0409ZM663.685 54.067V53.6988C663.685 48.666 662.211 44.8608 659.386 42.2831C656.561 39.7054 652.631 38.3551 647.595 38.3551H634.576V69.2879H647.718C652.754 69.2879 656.561 67.9377 659.386 65.1145C662.211 62.414 663.685 58.7315 663.685 54.067Z" stroke="#5E17EB" stroke-width="19.1911" mask="url(#path-1-outside-1_850_262)"/>
<path d="M730.469 82.1766V100.466H774.194C774.194 115.564 762.526 127.717 747.541 127.717H729.732C715.239 127.717 703.693 116.178 703.693 101.694V38.7234C703.693 23.9934 715.607 12.0867 730.223 12.0867H780.089C780.089 27.1849 770.141 39.3371 755.156 39.3371H730.469V56.8903H763.017L756.999 82.1766H730.469Z" stroke="#5E17EB" stroke-width="19.1911" mask="url(#path-1-outside-1_850_262)"/>
<path d="M831.472 10.982C855.668 10.982 873.969 26.5712 873.969 53.4533V89.4188C873.969 110.654 855.668 128.576 831.472 128.576H790.08V36.2684C790.08 23.2569 799.169 12.455 812.803 11.1047L813.724 10.982H815.505C815.628 10.982 815.628 10.982 815.628 10.982H831.472ZM849.035 85.3681V54.1898C849.035 44.4926 841.175 35.9001 831.472 35.9001H815.628V103.167C815.628 103.29 815.628 103.535 815.628 103.658H831.472C841.175 103.658 849.035 95.0653 849.035 85.3681Z" stroke="#5E17EB" stroke-width="19.1911" mask="url(#path-1-outside-1_850_262)"/>
<mask id="path-2-outside-2_850_262" maskUnits="userSpaceOnUse" x="870.713" y="2.87695" width="149" height="136" fill="black">
<rect fill="white" x="870.713" y="2.87695" width="149" height="136"/>
<path d="M946.458 29.0799L971.023 127.648C957.389 130.962 943.756 123.474 940.685 110.954L939.334 105.553L938.843 102.852H914.893L913.05 110.954C909.98 123.474 896.346 130.962 882.713 127.648L907.155 29.0799C908.751 22.9424 912.068 18.6462 917.349 15.5774C920.297 13.9817 923.367 13.1224 926.806 13.1224C930.245 13.1224 933.439 13.9817 936.264 15.5774C941.545 18.6462 944.984 22.9424 946.458 29.0799ZM919.191 82.3531H934.544L926.806 45.4055L919.191 82.3531ZM983.225 37.4268C983.225 23.9244 995.262 12.877 1010 12.877V104.325C1010 117.828 998.087 128.875 983.225 128.875V37.4268Z"/>
</mask>
<path d="M946.458 29.0799L971.023 127.648C957.389 130.962 943.756 123.474 940.685 110.954L939.334 105.553L938.843 102.852H914.893L913.05 110.954C909.98 123.474 896.346 130.962 882.713 127.648L907.155 29.0799C908.751 22.9424 912.068 18.6462 917.349 15.5774C920.297 13.9817 923.367 13.1224 926.806 13.1224C930.245 13.1224 933.439 13.9817 936.264 15.5774C941.545 18.6462 944.984 22.9424 946.458 29.0799ZM919.191 82.3531H934.544L926.806 45.4055L919.191 82.3531ZM983.225 37.4268C983.225 23.9244 995.262 12.877 1010 12.877V104.325C1010 117.828 998.087 128.875 983.225 128.875V37.4268Z" fill="white"/>
<path d="M946.458 29.0799L971.023 127.648C957.389 130.962 943.756 123.474 940.685 110.954L939.334 105.553L938.843 102.852H914.893L913.05 110.954C909.98 123.474 896.346 130.962 882.713 127.648L907.155 29.0799C908.751 22.9424 912.068 18.6462 917.349 15.5774C920.297 13.9817 923.367 13.1224 926.806 13.1224C930.245 13.1224 933.439 13.9817 936.264 15.5774C941.545 18.6462 944.984 22.9424 946.458 29.0799ZM919.191 82.3531H934.544L926.806 45.4055L919.191 82.3531ZM983.225 37.4268C983.225 23.9244 995.262 12.877 1010 12.877V104.325C1010 117.828 998.087 128.875 983.225 128.875V37.4268Z" stroke="#5E17EB" stroke-width="19.1911" mask="url(#path-2-outside-2_850_262)"/>
</svg>
