<svg viewBox="0 0 1075 170" fill="none" xmlns="http://www.w3.org/2000/svg">
<path d="M258.891 119.37C253.914 119.37 249.18 118.394 244.691 116.442C240.202 114.491 236.25 111.807 232.834 108.391C229.419 104.976 226.735 101.023 224.783 96.5341C222.831 92.045 221.855 87.3119 221.855 82.3349C221.855 77.2602 222.831 72.4296 224.783 67.8429C226.735 63.2562 229.419 59.255 232.834 55.8394C236.25 52.4238 240.202 49.7888 244.691 47.9347C249.18 45.9829 253.914 45.007 258.891 45.007C263.965 45.007 268.796 45.9829 273.383 47.9347C277.969 49.7888 281.97 52.4238 285.386 55.8394C288.802 59.255 291.437 63.2562 293.291 67.8429C295.243 72.4296 296.219 77.2602 296.219 82.3349C296.219 87.3119 295.243 92.045 293.291 96.5341C291.437 101.023 288.802 104.976 285.386 108.391C281.97 111.807 277.969 114.491 273.383 116.442C268.796 118.394 263.965 119.37 258.891 119.37ZM258.891 58.0351C252.352 58.0351 246.741 60.3773 242.056 65.0616C239.812 67.3061 238.055 69.941 236.787 72.9663C235.518 75.9916 234.884 79.1144 234.884 82.3349C234.884 85.5553 235.518 88.6294 236.787 91.5571C238.055 94.4847 239.812 97.0709 242.056 99.3154C244.301 101.56 246.838 103.317 249.668 104.585C252.596 105.854 255.67 106.488 258.891 106.488C262.111 106.488 265.234 105.854 268.259 104.585C271.284 103.317 273.871 101.56 276.018 99.3154C278.164 97.0709 279.872 94.4847 281.141 91.5571C282.41 88.6294 283.044 85.5553 283.044 82.3349C283.044 79.1144 282.41 75.9916 281.141 72.9663C279.872 69.941 278.164 67.3061 276.018 65.0616C273.871 62.817 271.284 61.1092 268.259 59.9381C265.332 58.6695 262.209 58.0351 258.891 58.0351Z" fill="black"/>
<path d="M343.866 117.371C343.565 118.136 342.827 118.638 342.005 118.638H332.286C331.464 118.638 330.726 118.136 330.425 117.371L303.163 48.1793C302.646 46.867 303.614 45.4461 305.024 45.4461H314.635C315.455 45.4461 316.192 45.9461 316.494 46.7077L337.219 98.8763L357.798 46.7121C358.1 45.9482 358.838 45.4461 359.659 45.4461H369.267C370.677 45.4461 371.645 46.867 371.128 48.1793L343.866 117.371Z" fill="black"/>
<path d="M390.652 87.6047C390.652 89.9468 391.482 92.3866 393.141 94.9239C394.897 97.4612 396.898 99.6082 399.142 101.365C403.241 104.585 408.023 106.195 413.488 106.195C421.61 106.195 428.324 102.526 433.629 95.1873C434.257 94.319 435.441 94.037 436.363 94.5829L444.084 99.1544C445.047 99.7251 445.358 100.978 444.731 101.906C441.136 107.228 436.821 111.39 431.786 114.393C426.223 117.711 420.124 119.37 413.488 119.37C408.511 119.37 403.778 118.443 399.289 116.589C394.8 114.637 390.847 111.953 387.432 108.538C384.016 105.122 381.332 101.17 379.381 96.6805C377.526 92.1914 376.599 87.4583 376.599 82.4813C376.599 77.5042 377.526 72.7711 379.381 68.282C381.332 63.6953 384.016 59.6942 387.432 56.2785C390.75 52.8629 394.653 50.228 399.142 48.3738C403.729 46.5196 408.511 45.5925 413.488 45.5925C418.465 45.5925 423.198 46.5196 427.687 48.3738C432.274 50.228 436.226 52.8629 439.544 56.2785C446.766 63.6953 450.377 72.2832 450.377 82.0421C450.377 83.2786 450.304 84.5635 450.159 85.8967C450.052 86.8809 449.205 87.6047 448.215 87.6047H390.652ZM413.488 57.596C409.487 57.596 405.73 58.4743 402.216 60.2309C398.703 61.9875 395.873 64.3297 393.726 67.2573C391.677 70.0874 390.652 73.1127 390.652 76.3331H436.324C436.324 73.1127 435.25 70.0874 433.104 67.2573C431.054 64.3297 428.273 61.9875 424.76 60.2309C421.246 58.4743 417.489 57.596 413.488 57.596Z" fill="black"/>
<path d="M498.557 58.9677C497.993 59.3005 497.304 59.3303 496.697 59.0837C494.738 58.2871 492.959 57.8888 491.362 57.8888C487.458 57.8888 484.238 59.255 481.701 61.9875C478.968 64.9152 477.602 68.282 477.602 72.088V116.638C477.602 117.743 476.707 118.638 475.602 118.638H467.013C465.908 118.638 465.013 117.743 465.013 116.638V72.088C465.013 66.8182 466.33 61.9875 468.965 57.596C471.698 53.2045 475.406 49.7888 480.09 47.3491C483.604 45.6901 487.361 44.8606 491.362 44.8606C494.582 44.8606 497.657 45.4461 500.584 46.6172C502.818 47.5105 505.136 48.8297 507.54 50.5748C508.665 51.3918 508.537 53.0755 507.34 53.7824L498.557 58.9677Z" fill="black"/>
<path d="M568.889 118.638C567.785 118.638 566.889 117.743 566.889 116.638V73.6982C566.889 69.1115 565.279 65.208 562.059 61.9875C560.595 60.5237 558.838 59.3526 556.789 58.4743C554.837 57.596 552.836 57.1568 550.787 57.1568C546.396 57.1568 542.59 58.7671 539.369 61.9875C536.149 65.208 534.538 69.1115 534.538 73.6982V116.638C534.538 117.743 533.643 118.638 532.538 118.638H523.657C522.552 118.638 521.657 117.743 521.657 116.638V23C521.657 21.8954 522.552 21 523.657 21H532.538C533.643 21 534.538 21.8954 534.538 23V50.5696C539.223 46.178 544.639 43.9823 550.787 43.9823C554.691 43.9823 558.399 44.763 561.912 46.3244C565.425 47.7883 568.548 49.8864 571.281 52.6189C573.916 55.3514 575.965 58.5719 577.429 62.2803C578.99 65.8911 579.771 69.6971 579.771 73.6982V116.638C579.771 117.743 578.876 118.638 577.771 118.638H568.889Z" fill="black"/>
<path d="M626.185 149.818C620.622 149.818 615.45 148.403 610.668 145.573C606.506 143.058 602.806 139.541 599.568 135.023C598.899 134.089 599.21 132.793 600.205 132.219L608.131 127.646C609.059 127.111 610.236 127.407 610.873 128.269C612.683 130.719 614.762 132.632 617.109 134.008C619.939 135.765 622.965 136.643 626.185 136.643C631.357 136.643 635.846 134.74 639.652 130.934C641.409 129.178 642.726 127.128 643.605 124.786C644.581 122.444 645.069 119.956 645.069 117.321V112.197C642.824 114.539 639.994 116.442 636.578 117.906C633.163 119.272 629.698 119.956 626.185 119.956C621.891 119.956 617.841 119.175 614.035 117.613C610.229 115.954 606.862 113.661 603.935 110.733C600.909 107.806 598.567 104.439 596.908 100.633C595.249 96.7293 594.42 92.6305 594.42 88.3366V47.4461C594.42 46.3416 595.315 45.4461 596.42 45.4461H605.302C606.406 45.4461 607.302 46.3416 607.302 47.4461V87.4583C607.302 90.8739 608.131 94.0944 609.79 97.1197C611.547 100.047 613.84 102.389 616.67 104.146C619.598 105.903 622.769 106.781 626.185 106.781C629.601 106.781 632.772 105.951 635.7 104.292C638.628 102.536 640.921 100.194 642.58 97.266C644.239 94.2408 645.069 90.9715 645.069 87.4583V47.4461C645.069 46.3416 645.964 45.4461 647.069 45.4461H655.95C657.055 45.4461 657.95 46.3416 657.95 47.4461V117.321C657.95 121.712 657.121 125.909 655.462 129.91C653.9 133.911 651.656 137.375 648.728 140.303C645.703 143.328 642.239 145.67 638.335 147.329C634.529 148.988 630.479 149.818 626.185 149.818Z" fill="black"/>
<path d="M711.148 119.956C705.586 119.956 700.95 119.077 697.242 117.321C693.534 115.466 690.167 112.588 687.141 108.684V147.818C687.141 148.922 686.246 149.818 685.141 149.818H676.113C675.009 149.818 674.113 148.922 674.113 147.818V49.2027C674.113 48.0982 675.009 47.2027 676.113 47.2027H685.141C686.246 47.2027 687.141 48.0982 687.141 49.2027V57.4496C690.167 53.7412 693.777 50.7647 697.974 48.5202C702.17 46.2756 706.562 45.1534 711.148 45.1534C716.125 45.1534 720.859 46.1292 725.348 48.081C729.934 49.9352 733.887 52.6189 737.205 56.1322C740.62 59.6454 743.255 63.6953 745.109 68.282C747.061 72.7711 748.037 77.553 748.037 82.6276C748.037 87.7023 747.061 92.4842 745.109 96.9733C743.255 101.462 740.62 105.464 737.205 108.977C733.887 112.392 729.934 115.076 725.348 117.028C720.859 118.98 716.125 119.956 711.148 119.956ZM711.148 58.4743C707.928 58.4743 704.854 59.1086 701.926 60.3773C698.999 61.5484 696.461 63.2562 694.314 65.5007C692.167 67.7453 690.459 70.3802 689.191 73.4055C687.922 76.3331 687.288 79.4072 687.288 82.6276C687.288 85.8481 687.922 88.9221 689.191 91.8498C690.459 94.7775 692.167 97.3636 694.314 99.6082C696.461 101.853 698.999 103.609 701.926 104.878C704.854 106.147 707.928 106.781 711.148 106.781C714.369 106.781 717.443 106.147 720.371 104.878C723.298 103.609 725.836 101.853 727.983 99.6082C730.13 97.3636 731.789 94.7775 732.96 91.8498C734.228 88.9221 734.863 85.8481 734.863 82.6276C734.863 79.4072 734.228 76.3331 732.96 73.4055C731.789 70.3802 730.13 67.7453 727.983 65.5007C725.836 63.2562 723.298 61.5484 720.371 60.3773C717.443 59.1086 714.369 58.4743 711.148 58.4743Z" fill="black"/>
<path d="M775.224 87.6047C775.224 89.9468 776.054 92.3866 777.713 94.9239C779.47 97.4612 781.47 99.6082 783.715 101.365C787.814 104.585 792.595 106.195 798.06 106.195C806.182 106.195 812.896 102.526 818.202 95.1873C818.83 94.319 820.013 94.037 820.935 94.5829L828.656 99.1544C829.62 99.7251 829.931 100.978 829.304 101.906C825.708 107.228 821.393 111.39 816.358 114.393C810.796 117.711 804.696 119.37 798.06 119.37C793.083 119.37 788.35 118.443 783.861 116.589C779.372 114.637 775.42 111.953 772.004 108.538C768.588 105.122 765.905 101.17 763.953 96.6805C762.099 92.1914 761.172 87.4583 761.172 82.4813C761.172 77.5042 762.099 72.7711 763.953 68.282C765.905 63.6953 768.588 59.6942 772.004 56.2785C775.322 52.8629 779.226 50.228 783.715 48.3738C788.301 46.5196 793.083 45.5925 798.06 45.5925C803.037 45.5925 807.771 46.5196 812.26 48.3738C816.846 50.228 820.799 52.8629 824.117 56.2785C831.338 63.6953 834.949 72.2832 834.949 82.0421C834.949 83.7987 834.803 85.6529 834.51 87.6047H775.224ZM798.06 57.596C794.059 57.596 790.302 58.4743 786.789 60.2309C783.276 61.9875 780.445 64.3297 778.299 67.2573C776.249 70.0874 775.224 73.1127 775.224 76.3331H820.896C820.896 73.1127 819.823 70.0874 817.676 67.2573C815.626 64.3297 812.845 61.9875 809.332 60.2309C805.819 58.4743 802.062 57.596 798.06 57.596Z" fill="black"/>
<path d="M910.027 118.638C908.922 118.638 908.027 117.743 908.027 116.638V107.367C904.904 111.075 901.196 114.003 896.902 116.15C892.705 118.297 888.314 119.37 883.727 119.37C878.555 119.37 873.724 118.443 869.235 116.589C864.746 114.637 860.842 111.904 857.524 108.391C854.109 104.878 851.425 100.877 849.473 96.3877C847.619 91.801 846.692 86.9704 846.692 81.8957C846.692 76.8211 847.619 72.0392 849.473 67.5501C851.425 62.9634 854.109 58.9134 857.524 55.4002C860.842 51.887 864.746 49.2033 869.235 47.3491C873.724 45.3973 878.555 44.4214 883.727 44.4214C888.802 44.4214 893.388 45.4461 897.487 47.4955C901.683 49.5449 905.197 52.375 908.027 55.9858V23.4392C908.027 22.3346 908.922 21.4392 910.027 21.4392H918.909C920.013 21.4392 920.909 22.3346 920.909 23.4392V116.638C920.909 117.743 920.013 118.638 918.909 118.638H910.027ZM883.727 57.7424C880.507 57.7424 877.432 58.3767 874.505 59.6454C871.577 60.8164 869.04 62.5243 866.893 64.7688C864.746 67.0134 863.038 69.6483 861.769 72.6735C860.501 75.6012 859.866 78.6753 859.866 81.8957C859.866 88.4342 862.209 94.1432 866.893 99.0227C869.04 101.267 871.577 103.024 874.505 104.292C877.432 105.561 880.507 106.195 883.727 106.195C886.948 106.195 890.022 105.561 892.949 104.292C895.974 103.024 898.561 101.267 900.708 99.0227C905.392 94.1432 907.734 88.4342 907.734 81.8957C907.734 78.6753 907.1 75.6012 905.831 72.6735C904.562 69.6483 902.855 67.0134 900.708 64.7688C898.561 62.5243 895.974 60.8164 892.949 59.6454C890.022 58.3767 886.948 57.7424 883.727 57.7424Z" fill="black"/>
<path d="M1036.81 118C1035.96 118 1035.2 117.462 1034.92 116.659L1023.73 84.5714H994.164L982.974 116.659C982.694 117.462 981.936 118 981.085 118H971.809C970.434 118 969.469 116.645 969.919 115.346L1001.37 24.4885C1001.65 23.6831 1002.41 23.1429 1003.26 23.1429H1014.63C1015.49 23.1429 1016.24 23.6831 1016.52 24.4885L1047.98 115.346C1048.43 116.645 1047.46 118 1046.09 118H1036.81ZM1008.95 41.5714L998.144 72.5714H1019.61L1008.95 41.5714Z" fill="black"/>
<path d="M1065.06 118C1063.95 118 1063.06 117.105 1063.06 116V25C1063.06 23.8954 1063.95 23 1065.06 23H1073C1074.1 23 1075 23.8954 1075 25V116C1075 117.105 1074.1 118 1073 118H1065.06Z" fill="black"/>
<path fill-rule="evenodd" clip-rule="evenodd" d="M156 85C156 124.212 124.212 156 85 156C45.7878 156 14 124.212 14 85C14 45.7878 45.7878 14 85 14C124.212 14 156 45.7878 156 85ZM170 85C170 131.944 131.944 170 85 170C38.0558 170 0 131.944 0 85C0 38.0558 38.0558 0 85 0C131.944 0 170 38.0558 170 85ZM85.455 29.0159C81.874 28.7646 78.7673 31.4639 78.5159 35.045C78.2646 38.626 80.9639 41.7328 84.545 41.9841C93.347 42.6017 103.269 45.0112 111.108 51.1728C118.698 57.1388 125.093 67.2123 126.009 84.8372C126.195 88.4222 129.252 91.1775 132.837 90.9912C136.422 90.805 139.177 87.7478 138.991 84.1628C137.907 63.2877 130.052 49.5278 119.142 40.9522C108.481 32.5722 95.653 29.7316 85.455 29.0159Z" fill="url(#paint0_linear_452_39)"/>
<defs>
<linearGradient id="paint0_linear_452_39" x1="138.5" y1="19" x2="25.5" y2="146" gradientUnits="userSpaceOnUse">
<stop stop-color="#34A974"/>
<stop offset="1" stop-color="#524C91"/>
</linearGradient>
</defs>
</svg>
