<svg width="2188" height="1000" viewBox="0 0 2188 1000" fill="none" xmlns="http://www.w3.org/2000/svg">
<g clip-path="url(#clip0_455_2)">
<rect width="2188" height="1000" fill="url(#paint0_linear_455_2)"/>
<path opacity="0.1" fill-rule="evenodd" clip-rule="evenodd" d="M2348.32 903.5C2348.32 1076.26 2208.26 1216.32 2035.5 1216.32C1862.74 1216.32 1722.68 1076.26 1722.68 903.5C1722.68 730.736 1862.74 590.682 2035.5 590.682C2208.26 590.682 2348.32 730.736 2348.32 903.5ZM2410 903.5C2410 1110.33 2242.33 1278 2035.5 1278C1828.67 1278 1661 1110.33 1661 903.5C1661 696.669 1828.67 529 2035.5 529C2242.33 529 2410 696.669 2410 903.5ZM2037.51 656.848C2021.73 655.74 2008.04 667.633 2006.93 683.411C2005.83 699.188 2017.72 712.876 2033.5 713.983C2072.28 716.705 2115.99 727.321 2150.53 754.468C2183.97 780.754 2212.15 825.136 2216.18 902.789C2217 918.585 2230.47 930.724 2246.27 929.903C2262.06 929.083 2274.2 915.613 2273.38 899.818C2268.6 807.845 2233.99 747.221 2185.93 709.437C2138.95 672.516 2082.44 660.001 2037.51 656.848Z" fill="url(#paint1_linear_455_2)"/>
<path d="M492.355 529.2V469.14H504.697V475.476H498.955V522.864H504.697V529.2H492.355ZM521.784 516V469.8H528.384V516H521.784ZM507.726 476.136V469.8H542.442V476.136H507.726ZM548.004 516V468.48L554.406 467.688L554.604 468.216V491.712L552.492 491.118C553.152 489.226 554.142 487.598 555.462 486.234C556.782 484.826 558.322 483.748 560.082 483C561.886 482.252 563.8 481.878 565.824 481.878C568.2 481.878 570.334 482.384 572.226 483.396C574.118 484.408 575.614 485.926 576.714 487.95C577.814 489.93 578.364 492.416 578.364 495.408V516H571.764V497.256C571.764 495.012 571.434 493.23 570.774 491.91C570.114 490.546 569.212 489.556 568.068 488.94C566.968 488.324 565.67 488.016 564.174 488.016C562.678 488.016 561.182 488.39 559.686 489.138C558.234 489.886 557.024 491.052 556.056 492.636C555.088 494.22 554.604 496.288 554.604 498.84V516H548.004ZM596.304 516.924C594.06 516.924 592.036 516.484 590.232 515.604C588.472 514.724 587.086 513.514 586.074 511.974C585.062 510.39 584.556 508.586 584.556 506.562C584.556 503.526 585.612 501.106 587.724 499.302C589.836 497.454 592.828 496.376 596.7 496.068L609.504 495.012V500.688L597.822 501.612C595.578 501.788 593.928 502.272 592.872 503.064C591.816 503.856 591.288 504.934 591.288 506.298C591.288 507.618 591.86 508.718 593.004 509.598C594.148 510.434 595.6 510.852 597.36 510.852C599.208 510.852 600.88 510.412 602.376 509.532C603.916 508.652 605.126 507.486 606.006 506.034C606.886 504.538 607.326 502.932 607.326 501.216V495.804C607.326 493.472 606.578 491.558 605.082 490.062C603.63 488.566 601.694 487.818 599.274 487.818C597.25 487.818 595.556 488.302 594.192 489.27C592.872 490.238 591.992 491.514 591.552 493.098H590.826L585.15 491.514C586.03 488.566 587.702 486.212 590.166 484.452C592.63 482.692 595.666 481.812 599.274 481.812C603.894 481.812 607.48 483.176 610.032 485.904C612.584 488.588 613.86 492.372 613.86 497.256V516H607.788V506.364L610.164 507.09C609.636 508.894 608.69 510.544 607.326 512.04C606.006 513.536 604.4 514.724 602.508 515.604C600.616 516.484 598.548 516.924 596.304 516.924ZM632.252 516C629.216 516 626.752 515.032 624.86 513.096C623.012 511.16 622.088 508.542 622.088 505.242V474.024H628.688V504.648C628.688 506.452 629.106 507.794 629.942 508.674C630.822 509.51 632.164 509.928 633.968 509.928H637.664L637.994 510.654V516H632.252ZM616.412 488.874V482.802H637.994V488.874H616.412ZM643.18 488.016V483.198C644.808 482.89 646.062 482.23 646.942 481.218C647.866 480.162 648.328 478.952 648.328 477.588C648.328 476.752 648.218 475.96 647.998 475.212L650.902 473.496C650.99 473.848 651.056 474.178 651.1 474.486C651.144 474.75 651.166 475.036 651.166 475.344C651.166 476.092 650.968 476.708 650.572 477.192C650.176 477.632 649.692 477.962 649.12 478.182C648.592 478.402 648.108 478.512 647.668 478.512C646.304 478.512 645.16 478.05 644.236 477.126C643.356 476.202 642.916 475.124 642.916 473.892C642.916 472.528 643.356 471.384 644.236 470.46C645.16 469.536 646.304 469.074 647.668 469.074C648.812 469.074 649.78 469.426 650.572 470.13C651.408 470.79 652.024 471.67 652.42 472.77C652.86 473.87 653.08 475.08 653.08 476.4C653.08 477.456 652.904 478.6 652.552 479.832C652.244 481.064 651.694 482.252 650.902 483.396C650.154 484.54 649.142 485.53 647.866 486.366C646.634 487.202 645.072 487.752 643.18 488.016ZM668.987 516.924C665.423 516.924 662.409 516.088 659.945 514.416C657.481 512.7 655.853 510.346 655.061 507.354L661.067 505.836L661.859 506.034C662.299 507.574 663.201 508.784 664.565 509.664C665.973 510.5 667.601 510.918 669.449 510.918C671.253 510.918 672.793 510.522 674.069 509.73C675.345 508.938 675.983 507.882 675.983 506.562C675.983 505.462 675.609 504.604 674.861 503.988C674.113 503.328 672.991 502.822 671.495 502.47L665.291 501.084C662.167 500.38 659.835 499.236 658.295 497.652C656.755 496.024 655.985 494.066 655.985 491.778C655.985 489.798 656.535 488.082 657.635 486.63C658.735 485.134 660.231 483.968 662.123 483.132C664.059 482.296 666.237 481.878 668.657 481.878C672.089 481.878 674.993 482.736 677.369 484.452C679.745 486.124 681.307 488.5 682.055 491.58L676.247 492.834L675.521 492.702C675.125 491.206 674.245 490.04 672.881 489.204C671.561 488.324 670.065 487.884 668.393 487.884C666.765 487.884 665.379 488.236 664.235 488.94C663.135 489.6 662.585 490.48 662.585 491.58C662.585 492.46 662.937 493.23 663.641 493.89C664.345 494.506 665.423 494.968 666.875 495.276L673.145 496.728C676.313 497.432 678.667 498.554 680.207 500.094C681.791 501.634 682.583 503.658 682.583 506.166C682.583 508.366 681.989 510.28 680.801 511.908C679.657 513.492 678.051 514.724 675.983 515.604C673.959 516.484 671.627 516.924 668.987 516.924ZM718.087 516.924C714.787 516.924 711.883 516.176 709.375 514.68C706.867 513.184 704.887 511.138 703.435 508.542C702.027 505.902 701.323 502.844 701.323 499.368C701.323 495.936 702.027 492.9 703.435 490.26C704.887 487.62 706.867 485.574 709.375 484.122C711.883 482.626 714.787 481.878 718.087 481.878C721.387 481.878 724.291 482.626 726.799 484.122C729.307 485.574 731.265 487.62 732.673 490.26C734.125 492.9 734.851 495.936 734.851 499.368C734.851 502.844 734.125 505.902 732.673 508.542C731.265 511.182 729.307 513.25 726.799 514.746C724.291 516.198 721.387 516.924 718.087 516.924ZM718.087 510.786C720.111 510.786 721.871 510.324 723.367 509.4C724.907 508.476 726.095 507.156 726.931 505.44C727.811 503.724 728.251 501.722 728.251 499.434C728.251 497.058 727.811 495.034 726.931 493.362C726.095 491.646 724.907 490.326 723.367 489.402C721.871 488.434 720.111 487.95 718.087 487.95C716.063 487.95 714.281 488.434 712.741 489.402C711.245 490.326 710.057 491.646 709.177 493.362C708.341 495.034 707.923 497.036 707.923 499.368C707.923 501.7 708.341 503.724 709.177 505.44C710.057 507.156 711.245 508.476 712.741 509.4C714.281 510.324 716.063 510.786 718.087 510.786ZM771.084 482.802V516H764.814V507.09L766.596 507.618C765.936 509.51 764.946 511.16 763.626 512.568C762.306 513.932 760.744 515.01 758.94 515.802C757.18 516.55 755.266 516.924 753.198 516.924C750.866 516.924 748.754 516.418 746.862 515.406C744.97 514.35 743.474 512.832 742.374 510.852C741.274 508.828 740.724 506.342 740.724 503.394V482.802H747.324V501.546C747.324 503.746 747.632 505.528 748.248 506.892C748.908 508.256 749.81 509.246 750.954 509.862C752.098 510.434 753.418 510.72 754.914 510.72C756.41 510.72 757.884 510.346 759.336 509.598C760.832 508.85 762.064 507.684 763.032 506.1C764 504.516 764.484 502.47 764.484 499.962V482.802H771.084ZM779.065 516V482.802H785.335V491.712L783.553 491.118C784.433 488.566 785.929 486.542 788.041 485.046C790.197 483.55 792.661 482.802 795.433 482.802H798.667V488.874H794.377C792.617 488.874 791.077 489.292 789.757 490.128C788.481 490.92 787.469 492.042 786.721 493.494C786.017 494.946 785.665 496.662 785.665 498.642V516H779.065ZM815.644 516V482.802H821.914V491.712L820.132 491.118C820.792 489.226 821.782 487.598 823.102 486.234C824.422 484.826 825.962 483.748 827.722 483C829.526 482.252 831.44 481.878 833.464 481.878C835.84 481.878 837.974 482.384 839.866 483.396C841.758 484.408 843.254 485.926 844.354 487.95C845.454 489.93 846.004 492.416 846.004 495.408V516H839.404V497.256C839.404 495.012 839.074 493.23 838.414 491.91C837.754 490.546 836.852 489.556 835.708 488.94C834.608 488.324 833.31 488.016 831.814 488.016C830.318 488.016 828.822 488.39 827.326 489.138C825.874 489.886 824.664 491.052 823.696 492.636C822.728 494.22 822.244 496.288 822.244 498.84V516H815.644ZM863.952 516.924C861.708 516.924 859.684 516.484 857.88 515.604C856.12 514.724 854.734 513.514 853.722 511.974C852.71 510.39 852.204 508.586 852.204 506.562C852.204 503.526 853.26 501.106 855.372 499.302C857.484 497.454 860.476 496.376 864.348 496.068L877.152 495.012V500.688L865.47 501.612C863.226 501.788 861.576 502.272 860.52 503.064C859.464 503.856 858.936 504.934 858.936 506.298C858.936 507.618 859.508 508.718 860.652 509.598C861.796 510.434 863.248 510.852 865.008 510.852C866.856 510.852 868.528 510.412 870.024 509.532C871.564 508.652 872.774 507.486 873.654 506.034C874.534 504.538 874.974 502.932 874.974 501.216V495.804C874.974 493.472 874.226 491.558 872.73 490.062C871.278 488.566 869.342 487.818 866.922 487.818C864.898 487.818 863.204 488.302 861.84 489.27C860.52 490.238 859.64 491.514 859.2 493.098H858.474L852.798 491.514C853.678 488.566 855.35 486.212 857.814 484.452C860.278 482.692 863.314 481.812 866.922 481.812C871.542 481.812 875.128 483.176 877.68 485.904C880.232 488.588 881.508 492.372 881.508 497.256V516H875.436V506.364L877.812 507.09C877.284 508.894 876.338 510.544 874.974 512.04C873.654 513.536 872.048 514.724 870.156 515.604C868.264 516.484 866.196 516.924 863.952 516.924ZM889.218 516V482.802H895.488V491.448L894.168 490.194C894.828 488.478 895.774 487.004 897.006 485.772C898.238 484.54 899.668 483.594 901.296 482.934C902.968 482.23 904.772 481.878 906.708 481.878C909.524 481.878 911.988 482.67 914.1 484.254C916.256 485.838 917.686 488.148 918.39 491.184L916.014 491.118C916.674 489.226 917.664 487.598 918.984 486.234C920.348 484.826 921.954 483.748 923.802 483C925.694 482.252 927.696 481.878 929.808 481.878C932.052 481.878 934.098 482.384 935.946 483.396C937.794 484.408 939.246 485.926 940.302 487.95C941.402 489.93 941.952 492.416 941.952 495.408V516H935.352V496.992C935.352 494.792 935.022 493.054 934.362 491.778C933.746 490.458 932.888 489.512 931.788 488.94C930.732 488.324 929.5 488.016 928.092 488.016C926.772 488.016 925.386 488.39 923.934 489.138C922.526 489.842 921.338 490.986 920.37 492.57C919.402 494.154 918.918 496.244 918.918 498.84V516H912.318V496.992C912.318 494.792 911.988 493.054 911.328 491.778C910.668 490.458 909.788 489.512 908.688 488.94C907.632 488.324 906.422 488.016 905.058 488.016C903.694 488.016 902.286 488.39 900.834 489.138C899.426 489.886 898.238 491.052 897.27 492.636C896.302 494.176 895.818 496.244 895.818 498.84V516H889.218ZM964.576 516.924C961.276 516.924 958.35 516.198 955.798 514.746C953.29 513.25 951.332 511.182 949.924 508.542C948.516 505.902 947.812 502.844 947.812 499.368C947.812 495.892 948.494 492.856 949.858 490.26C951.266 487.62 953.202 485.574 955.666 484.122C958.174 482.626 961.056 481.878 964.312 481.878C967.524 481.878 970.318 482.626 972.694 484.122C975.114 485.618 976.984 487.73 978.304 490.458C979.668 493.142 980.35 496.288 980.35 499.896V500.886L979.36 501.876H951.178V496.068H977.182L973.816 497.388C973.728 495.408 973.244 493.714 972.364 492.306C971.528 490.898 970.406 489.82 968.998 489.072C967.634 488.28 966.094 487.884 964.378 487.884C962.53 487.884 960.836 488.324 959.296 489.204C957.756 490.084 956.546 491.316 955.666 492.9C954.83 494.44 954.412 496.244 954.412 498.312V500.292C954.412 502.316 954.852 504.142 955.732 505.77C956.612 507.354 957.822 508.608 959.362 509.532C960.902 510.456 962.64 510.918 964.576 510.918C966.424 510.918 968.052 510.456 969.46 509.532C970.912 508.564 972.056 507.288 972.892 505.704H973.684L979.03 508.014C977.754 510.786 975.862 512.964 973.354 514.548C970.846 516.132 967.92 516.924 964.576 516.924ZM985.536 525.702V521.148C987.12 520.84 988.352 520.158 989.232 519.102C990.112 518.09 990.552 516.924 990.552 515.604C990.552 514.812 990.42 514.064 990.156 513.36L993.06 511.71C993.148 512.062 993.192 512.392 993.192 512.7C993.236 512.964 993.258 513.228 993.258 513.492C993.258 514.372 993.016 515.054 992.532 515.538C992.092 515.978 991.586 516.264 991.014 516.396C990.486 516.528 990.112 516.594 989.892 516.594C988.528 516.594 987.406 516.154 986.526 515.274C985.69 514.35 985.272 513.294 985.272 512.106C985.272 510.786 985.69 509.686 986.526 508.806C987.406 507.882 988.528 507.42 989.892 507.42C990.992 507.42 991.938 507.75 992.73 508.41C993.522 509.07 994.116 509.95 994.512 511.05C994.952 512.106 995.172 513.25 995.172 514.482C995.172 515.494 994.996 516.594 994.644 517.782C994.292 519.014 993.742 520.18 992.994 521.28C992.29 522.424 991.322 523.392 990.09 524.184C988.858 524.976 987.34 525.482 985.536 525.702ZM1016.52 516V482.802H1022.79V491.712L1021 491.118C1021.66 489.226 1022.65 487.598 1023.97 486.234C1025.29 484.826 1026.83 483.748 1028.59 483C1030.4 482.252 1032.31 481.878 1034.34 481.878C1036.71 481.878 1038.85 482.384 1040.74 483.396C1042.63 484.408 1044.13 485.926 1045.23 487.95C1046.33 489.93 1046.88 492.416 1046.88 495.408V516H1040.28V497.256C1040.28 495.012 1039.95 493.23 1039.29 491.91C1038.63 490.546 1037.72 489.556 1036.58 488.94C1035.48 488.324 1034.18 488.016 1032.69 488.016C1031.19 488.016 1029.69 488.39 1028.2 489.138C1026.75 489.886 1025.54 491.052 1024.57 492.636C1023.6 494.22 1023.12 496.288 1023.12 498.84V516H1016.52ZM1069.44 516.924C1066.14 516.924 1063.24 516.176 1060.73 514.68C1058.22 513.184 1056.24 511.138 1054.79 508.542C1053.38 505.902 1052.68 502.844 1052.68 499.368C1052.68 495.936 1053.38 492.9 1054.79 490.26C1056.24 487.62 1058.22 485.574 1060.73 484.122C1063.24 482.626 1066.14 481.878 1069.44 481.878C1072.74 481.878 1075.65 482.626 1078.16 484.122C1080.66 485.574 1082.62 487.62 1084.03 490.26C1085.48 492.9 1086.21 495.936 1086.21 499.368C1086.21 502.844 1085.48 505.902 1084.03 508.542C1082.62 511.182 1080.66 513.25 1078.16 514.746C1075.65 516.198 1072.74 516.924 1069.44 516.924ZM1069.44 510.786C1071.47 510.786 1073.23 510.324 1074.72 509.4C1076.26 508.476 1077.45 507.156 1078.29 505.44C1079.17 503.724 1079.61 501.722 1079.61 499.434C1079.61 497.058 1079.17 495.034 1078.29 493.362C1077.45 491.646 1076.26 490.326 1074.72 489.402C1073.23 488.434 1071.47 487.95 1069.44 487.95C1067.42 487.95 1065.64 488.434 1064.1 489.402C1062.6 490.326 1061.41 491.646 1060.53 493.362C1059.7 495.034 1059.28 497.036 1059.28 499.368C1059.28 501.7 1059.7 503.724 1060.53 505.44C1061.41 507.156 1062.6 508.476 1064.1 509.4C1065.64 510.324 1067.42 510.786 1069.44 510.786ZM1104.12 516C1101.09 516 1098.62 515.032 1096.73 513.096C1094.88 511.16 1093.96 508.542 1093.96 505.242V474.024H1100.56V504.648C1100.56 506.452 1100.98 507.794 1101.81 508.674C1102.69 509.51 1104.04 509.928 1105.84 509.928H1109.54L1109.87 510.654V516H1104.12ZM1088.28 488.874V482.802H1109.87V488.874H1088.28ZM1141.41 516.924C1139.17 516.924 1137.14 516.484 1135.34 515.604C1133.58 514.724 1132.19 513.514 1131.18 511.974C1130.17 510.39 1129.66 508.586 1129.66 506.562C1129.66 503.526 1130.72 501.106 1132.83 499.302C1134.94 497.454 1137.94 496.376 1141.81 496.068L1154.61 495.012V500.688L1142.93 501.612C1140.69 501.788 1139.04 502.272 1137.98 503.064C1136.92 503.856 1136.4 504.934 1136.4 506.298C1136.4 507.618 1136.97 508.718 1138.11 509.598C1139.26 510.434 1140.71 510.852 1142.47 510.852C1144.32 510.852 1145.99 510.412 1147.48 509.532C1149.02 508.652 1150.23 507.486 1151.11 506.034C1151.99 504.538 1152.43 502.932 1152.43 501.216V495.804C1152.43 493.472 1151.69 491.558 1150.19 490.062C1148.74 488.566 1146.8 487.818 1144.38 487.818C1142.36 487.818 1140.66 488.302 1139.3 489.27C1137.98 490.238 1137.1 491.514 1136.66 493.098H1135.93L1130.26 491.514C1131.14 488.566 1132.81 486.212 1135.27 484.452C1137.74 482.692 1140.77 481.812 1144.38 481.812C1149 481.812 1152.59 483.176 1155.14 485.904C1157.69 488.588 1158.97 492.372 1158.97 497.256V516H1152.9V506.364L1155.27 507.09C1154.74 508.894 1153.8 510.544 1152.43 512.04C1151.11 513.536 1149.51 514.724 1147.62 515.604C1145.72 516.484 1143.66 516.924 1141.41 516.924ZM1196.54 516.924C1193.19 516.924 1190.25 516.198 1187.69 514.746C1185.14 513.25 1183.14 511.182 1181.69 508.542C1180.28 505.902 1179.58 502.844 1179.58 499.368C1179.58 495.892 1180.28 492.856 1181.69 490.26C1183.14 487.62 1185.14 485.574 1187.69 484.122C1190.25 482.626 1193.19 481.878 1196.54 481.878C1199.13 481.878 1201.44 482.318 1203.47 483.198C1205.54 484.078 1207.3 485.376 1208.75 487.092C1210.2 488.764 1211.28 490.832 1211.98 493.296L1206.37 494.88H1205.65C1204.94 492.724 1203.75 491.03 1202.08 489.798C1200.45 488.566 1198.61 487.95 1196.54 487.95C1194.43 487.95 1192.6 488.434 1191.06 489.402C1189.52 490.37 1188.31 491.712 1187.43 493.428C1186.59 495.1 1186.18 497.08 1186.18 499.368C1186.18 501.656 1186.59 503.658 1187.43 505.374C1188.31 507.09 1189.52 508.432 1191.06 509.4C1192.6 510.324 1194.43 510.786 1196.54 510.786C1198.03 510.786 1199.4 510.522 1200.63 509.994C1201.86 509.466 1202.92 508.696 1203.8 507.684C1204.72 506.628 1205.43 505.374 1205.91 503.922H1206.64L1212.31 505.506C1211.52 507.97 1210.38 510.06 1208.88 511.776C1207.38 513.492 1205.6 514.79 1203.53 515.67C1201.51 516.506 1199.18 516.924 1196.54 516.924ZM1248.24 482.802V516H1241.97V507.09L1243.75 507.618C1243.09 509.51 1242.1 511.16 1240.78 512.568C1239.46 513.932 1237.9 515.01 1236.1 515.802C1234.34 516.55 1232.42 516.924 1230.35 516.924C1228.02 516.924 1225.91 516.418 1224.02 515.406C1222.13 514.35 1220.63 512.832 1219.53 510.852C1218.43 508.828 1217.88 506.342 1217.88 503.394V482.802H1224.48V501.546C1224.48 503.746 1224.79 505.528 1225.4 506.892C1226.06 508.256 1226.97 509.246 1228.11 509.862C1229.25 510.434 1230.57 510.72 1232.07 510.72C1233.57 510.72 1235.04 510.346 1236.49 509.598C1237.99 508.85 1239.22 507.684 1240.19 506.1C1241.16 504.516 1241.64 502.47 1241.64 499.962V482.802H1248.24ZM1267.64 516.924C1264.08 516.924 1261.06 516.088 1258.6 514.416C1256.13 512.7 1254.51 510.346 1253.71 507.354L1259.72 505.836L1260.51 506.034C1260.95 507.574 1261.85 508.784 1263.22 509.664C1264.63 510.5 1266.25 510.918 1268.1 510.918C1269.91 510.918 1271.45 510.522 1272.72 509.73C1274 508.938 1274.64 507.882 1274.64 506.562C1274.64 505.462 1274.26 504.604 1273.51 503.988C1272.77 503.328 1271.64 502.822 1270.15 502.47L1263.94 501.084C1260.82 500.38 1258.49 499.236 1256.95 497.652C1255.41 496.024 1254.64 494.066 1254.64 491.778C1254.64 489.798 1255.19 488.082 1256.29 486.63C1257.39 485.134 1258.88 483.968 1260.78 483.132C1262.71 482.296 1264.89 481.878 1267.31 481.878C1270.74 481.878 1273.65 482.736 1276.02 484.452C1278.4 486.124 1279.96 488.5 1280.71 491.58L1274.9 492.834L1274.17 492.702C1273.78 491.206 1272.9 490.04 1271.53 489.204C1270.21 488.324 1268.72 487.884 1267.05 487.884C1265.42 487.884 1264.03 488.236 1262.89 488.94C1261.79 489.6 1261.24 490.48 1261.24 491.58C1261.24 492.46 1261.59 493.23 1262.29 493.89C1263 494.506 1264.08 494.968 1265.53 495.276L1271.8 496.728C1274.97 497.432 1277.32 498.554 1278.86 500.094C1280.44 501.634 1281.24 503.658 1281.24 506.166C1281.24 508.366 1280.64 510.28 1279.45 511.908C1278.31 513.492 1276.7 514.724 1274.64 515.604C1272.61 516.484 1270.28 516.924 1267.64 516.924ZM1298.79 516C1295.76 516 1293.29 515.032 1291.4 513.096C1289.55 511.16 1288.63 508.542 1288.63 505.242V474.024H1295.23V504.648C1295.23 506.452 1295.65 507.794 1296.48 508.674C1297.36 509.51 1298.7 509.928 1300.51 509.928H1304.2L1304.53 510.654V516H1298.79ZM1282.95 488.874V482.802H1304.53V488.874H1282.95ZM1324.67 516.924C1321.37 516.924 1318.46 516.176 1315.96 514.68C1313.45 513.184 1311.47 511.138 1310.02 508.542C1308.61 505.902 1307.9 502.844 1307.9 499.368C1307.9 495.936 1308.61 492.9 1310.02 490.26C1311.47 487.62 1313.45 485.574 1315.96 484.122C1318.46 482.626 1321.37 481.878 1324.67 481.878C1327.97 481.878 1330.87 482.626 1333.38 484.122C1335.89 485.574 1337.85 487.62 1339.25 490.26C1340.71 492.9 1341.43 495.936 1341.43 499.368C1341.43 502.844 1340.71 505.902 1339.25 508.542C1337.85 511.182 1335.89 513.25 1333.38 514.746C1330.87 516.198 1327.97 516.924 1324.67 516.924ZM1324.67 510.786C1326.69 510.786 1328.45 510.324 1329.95 509.4C1331.49 508.476 1332.68 507.156 1333.51 505.44C1334.39 503.724 1334.83 501.722 1334.83 499.434C1334.83 497.058 1334.39 495.034 1333.51 493.362C1332.68 491.646 1331.49 490.326 1329.95 489.402C1328.45 488.434 1326.69 487.95 1324.67 487.95C1322.64 487.95 1320.86 488.434 1319.32 489.402C1317.83 490.326 1316.64 491.646 1315.76 493.362C1314.92 495.034 1314.5 497.036 1314.5 499.368C1314.5 501.7 1314.92 503.724 1315.76 505.44C1316.64 507.156 1317.83 508.476 1319.32 509.4C1320.86 510.324 1322.64 510.786 1324.67 510.786ZM1347.63 516V482.802H1353.9V491.448L1352.58 490.194C1353.24 488.478 1354.19 487.004 1355.42 485.772C1356.65 484.54 1358.08 483.594 1359.71 482.934C1361.38 482.23 1363.19 481.878 1365.12 481.878C1367.94 481.878 1370.4 482.67 1372.52 484.254C1374.67 485.838 1376.1 488.148 1376.81 491.184L1374.43 491.118C1375.09 489.226 1376.08 487.598 1377.4 486.234C1378.76 484.826 1380.37 483.748 1382.22 483C1384.11 482.252 1386.11 481.878 1388.22 481.878C1390.47 481.878 1392.51 482.384 1394.36 483.396C1396.21 484.408 1397.66 485.926 1398.72 487.95C1399.82 489.93 1400.37 492.416 1400.37 495.408V516H1393.77V496.992C1393.77 494.792 1393.44 493.054 1392.78 491.778C1392.16 490.458 1391.3 489.512 1390.2 488.94C1389.15 488.324 1387.92 488.016 1386.51 488.016C1385.19 488.016 1383.8 488.39 1382.35 489.138C1380.94 489.842 1379.75 490.986 1378.79 492.57C1377.82 494.154 1377.33 496.244 1377.33 498.84V516H1370.73V496.992C1370.73 494.792 1370.4 493.054 1369.74 491.778C1369.08 490.458 1368.2 489.512 1367.1 488.94C1366.05 488.324 1364.84 488.016 1363.47 488.016C1362.11 488.016 1360.7 488.39 1359.25 489.138C1357.84 489.886 1356.65 491.052 1355.69 492.636C1354.72 494.176 1354.23 496.244 1354.23 498.84V516H1347.63ZM1422.99 516.924C1419.69 516.924 1416.77 516.198 1414.21 514.746C1411.71 513.25 1409.75 511.182 1408.34 508.542C1406.93 505.902 1406.23 502.844 1406.23 499.368C1406.23 495.892 1406.91 492.856 1408.27 490.26C1409.68 487.62 1411.62 485.574 1414.08 484.122C1416.59 482.626 1419.47 481.878 1422.73 481.878C1425.94 481.878 1428.73 482.626 1431.11 484.122C1433.53 485.618 1435.4 487.73 1436.72 490.458C1438.08 493.142 1438.77 496.288 1438.77 499.896V500.886L1437.78 501.876H1409.59V496.068H1435.6L1432.23 497.388C1432.14 495.408 1431.66 493.714 1430.78 492.306C1429.94 490.898 1428.82 489.82 1427.41 489.072C1426.05 488.28 1424.51 487.884 1422.79 487.884C1420.95 487.884 1419.25 488.324 1417.71 489.204C1416.17 490.084 1414.96 491.316 1414.08 492.9C1413.25 494.44 1412.83 496.244 1412.83 498.312V500.292C1412.83 502.316 1413.27 504.142 1414.15 505.77C1415.03 507.354 1416.24 508.608 1417.78 509.532C1419.32 510.456 1421.06 510.918 1422.99 510.918C1424.84 510.918 1426.47 510.456 1427.88 509.532C1429.33 508.564 1430.47 507.288 1431.31 505.704H1432.1L1437.45 508.014C1436.17 510.786 1434.28 512.964 1431.77 514.548C1429.26 516.132 1426.34 516.924 1422.99 516.924ZM1444.99 516V482.802H1451.26V491.712L1449.48 491.118C1450.36 488.566 1451.86 486.542 1453.97 485.046C1456.12 483.55 1458.59 482.802 1461.36 482.802H1464.59V488.874H1460.3C1458.54 488.874 1457 489.292 1455.68 490.128C1454.41 490.92 1453.4 492.042 1452.65 493.494C1451.94 494.946 1451.59 496.662 1451.59 498.642V516H1444.99ZM1481.57 516V482.802H1487.84V491.712L1486.06 491.118C1486.94 488.566 1488.43 486.542 1490.55 485.046C1492.7 483.55 1495.17 482.802 1497.94 482.802H1501.17V488.874H1496.88C1495.12 488.874 1493.58 489.292 1492.26 490.128C1490.99 490.92 1489.97 492.042 1489.23 493.494C1488.52 494.946 1488.17 496.662 1488.17 498.642V516H1481.57ZM1519.03 516.924C1515.73 516.924 1512.8 516.198 1510.25 514.746C1507.74 513.25 1505.79 511.182 1504.38 508.542C1502.97 505.902 1502.27 502.844 1502.27 499.368C1502.27 495.892 1502.95 492.856 1504.31 490.26C1505.72 487.62 1507.66 485.574 1510.12 484.122C1512.63 482.626 1515.51 481.878 1518.77 481.878C1521.98 481.878 1524.77 482.626 1527.15 484.122C1529.57 485.618 1531.44 487.73 1532.76 490.458C1534.12 493.142 1534.8 496.288 1534.8 499.896V500.886L1533.81 501.876H1505.63V496.068H1531.64L1528.27 497.388C1528.18 495.408 1527.7 493.714 1526.82 492.306C1525.98 490.898 1524.86 489.82 1523.45 489.072C1522.09 488.28 1520.55 487.884 1518.83 487.884C1516.98 487.884 1515.29 488.324 1513.75 489.204C1512.21 490.084 1511 491.316 1510.12 492.9C1509.28 494.44 1508.87 496.244 1508.87 498.312V500.292C1508.87 502.316 1509.31 504.142 1510.19 505.77C1511.07 507.354 1512.28 508.608 1513.82 509.532C1515.36 510.456 1517.09 510.918 1519.03 510.918C1520.88 510.918 1522.51 510.456 1523.91 509.532C1525.37 508.564 1526.51 507.288 1527.35 505.704H1528.14L1533.48 508.014C1532.21 510.786 1530.32 512.964 1527.81 514.548C1525.3 516.132 1522.37 516.924 1519.03 516.924ZM1550.3 516L1550.76 511.974L1562.38 482.802H1569.18V483.33L1555.78 516H1550.3ZM1549.31 516L1535.91 483.33V482.802H1542.71L1554.33 511.974L1554.79 516H1549.31ZM1573.37 516V482.802H1579.97V516H1573.37ZM1576.67 477.258C1575.44 477.258 1574.4 476.84 1573.57 476.004C1572.73 475.124 1572.31 474.09 1572.31 472.902C1572.31 471.67 1572.73 470.636 1573.57 469.8C1574.4 468.964 1575.44 468.546 1576.67 468.546C1577.86 468.546 1578.87 468.964 1579.71 469.8C1580.59 470.636 1581.03 471.67 1581.03 472.902C1581.03 474.09 1580.59 475.124 1579.71 476.004C1578.87 476.84 1577.86 477.258 1576.67 477.258ZM1602.97 516.924C1599.67 516.924 1596.74 516.198 1594.19 514.746C1591.68 513.25 1589.72 511.182 1588.31 508.542C1586.91 505.902 1586.2 502.844 1586.2 499.368C1586.2 495.892 1586.88 492.856 1588.25 490.26C1589.66 487.62 1591.59 485.574 1594.06 484.122C1596.56 482.626 1599.45 481.878 1602.7 481.878C1605.91 481.878 1608.71 482.626 1611.08 484.122C1613.5 485.618 1615.37 487.73 1616.69 490.458C1618.06 493.142 1618.74 496.288 1618.74 499.896V500.886L1617.75 501.876H1589.57V496.068H1615.57L1612.21 497.388C1612.12 495.408 1611.63 493.714 1610.75 492.306C1609.92 490.898 1608.8 489.82 1607.39 489.072C1606.02 488.28 1604.48 487.884 1602.77 487.884C1600.92 487.884 1599.23 488.324 1597.69 489.204C1596.15 490.084 1594.94 491.316 1594.06 492.9C1593.22 494.44 1592.8 496.244 1592.8 498.312V500.292C1592.8 502.316 1593.24 504.142 1594.12 505.77C1595 507.354 1596.21 508.608 1597.75 509.532C1599.29 510.456 1601.03 510.918 1602.97 510.918C1604.81 510.918 1606.44 510.456 1607.85 509.532C1609.3 508.564 1610.45 507.288 1611.28 505.704H1612.07L1617.42 508.014C1616.14 510.786 1614.25 512.964 1611.74 514.548C1609.24 516.132 1606.31 516.924 1602.97 516.924ZM1631.07 516L1620.18 483.33V482.802H1626.78L1636.09 512.568L1637.41 516H1631.07ZM1631.07 516L1632.59 512.568L1642.22 482.802H1648.69L1648.1 483.33L1637.41 516H1631.07ZM1653.51 516L1642.82 483.33L1642.22 482.802H1648.69L1658.33 512.568L1659.85 516H1653.51ZM1653.51 516L1654.83 512.568L1664.14 482.802H1670.74V483.33L1659.85 516H1653.51ZM1674.61 516.594C1673.29 516.594 1672.19 516.154 1671.31 515.274C1670.43 514.394 1669.99 513.316 1669.99 512.04C1669.99 510.72 1670.43 509.62 1671.31 508.74C1672.19 507.86 1673.29 507.42 1674.61 507.42C1675.84 507.42 1676.9 507.86 1677.78 508.74C1678.66 509.62 1679.1 510.72 1679.1 512.04C1679.1 513.316 1678.66 514.394 1677.78 515.274C1676.9 516.154 1675.84 516.594 1674.61 516.594ZM1696.65 529.2H1684.31V522.864H1690.05V475.476H1684.31V469.14H1696.65V529.2Z" fill="white"/>
<path d="M323.622 825L324.196 823.28L345.328 767.665H354.01V768.321L331.813 825H323.622ZM323.622 825L301.426 768.321V767.665H310.108L331.24 823.28L331.813 825H323.622ZM372.561 826.147C368.466 826.147 364.862 825.218 361.749 823.362C358.637 821.505 356.18 818.966 354.378 815.745C352.63 812.468 351.757 808.673 351.757 804.36C351.757 800.1 352.63 796.333 354.378 793.056C356.18 789.78 358.637 787.241 361.749 785.439C364.862 783.583 368.466 782.654 372.561 782.654C376.656 782.654 380.26 783.583 383.373 785.439C386.485 787.241 388.915 789.78 390.662 793.056C392.464 796.333 393.365 800.1 393.365 804.36C393.365 808.673 392.464 812.468 390.662 815.745C388.915 819.021 386.485 821.587 383.373 823.444C380.26 825.246 376.656 826.147 372.561 826.147ZM372.561 818.529C375.073 818.529 377.257 817.956 379.113 816.809C381.025 815.663 382.499 814.025 383.536 811.895C384.628 809.765 385.174 807.281 385.174 804.441C385.174 801.493 384.628 798.981 383.536 796.906C382.499 794.776 381.025 793.138 379.113 791.992C377.257 790.79 375.073 790.19 372.561 790.19C370.049 790.19 367.838 790.79 365.926 791.992C364.07 793.138 362.596 794.776 361.503 796.906C360.466 798.981 359.947 801.465 359.947 804.36C359.947 807.254 360.466 809.765 361.503 811.895C362.596 814.025 364.07 815.663 365.926 816.809C367.838 817.956 370.049 818.529 372.561 818.529ZM400.981 825V783.801H409.172V825H400.981ZM405.076 776.921C403.548 776.921 402.264 776.402 401.227 775.365C400.189 774.272 399.671 772.989 399.671 771.515C399.671 769.986 400.189 768.703 401.227 767.665C402.264 766.628 403.548 766.109 405.076 766.109C406.551 766.109 407.807 766.628 408.844 767.665C409.936 768.703 410.482 769.986 410.482 771.515C410.482 772.989 409.936 774.272 408.844 775.365C407.807 776.402 406.551 776.921 405.076 776.921ZM437.874 826.147C433.724 826.147 430.065 825.246 426.898 823.444C423.731 821.587 421.247 819.021 419.445 815.745C417.697 812.468 416.824 808.673 416.824 804.36C416.824 800.046 417.697 796.278 419.445 793.056C421.247 789.78 423.731 787.241 426.898 785.439C430.065 783.583 433.724 782.654 437.874 782.654C441.095 782.654 443.962 783.2 446.474 784.292C449.04 785.384 451.224 786.995 453.026 789.125C454.828 791.2 456.166 793.766 457.04 796.824L450.078 798.79H449.177C448.303 796.114 446.829 794.012 444.754 792.483C442.733 790.954 440.44 790.19 437.874 790.19C435.253 790.19 432.987 790.79 431.075 791.992C429.164 793.193 427.663 794.858 426.571 796.988C425.533 799.063 425.014 801.52 425.014 804.36C425.014 807.199 425.533 809.683 426.571 811.813C427.663 813.943 429.164 815.608 431.075 816.809C432.987 817.956 435.253 818.529 437.874 818.529C439.73 818.529 441.423 818.202 442.952 817.546C444.481 816.891 445.791 815.936 446.883 814.68C448.03 813.369 448.904 811.813 449.504 810.011H450.405L457.449 811.977C456.467 815.035 455.047 817.628 453.19 819.758C451.334 821.888 449.122 823.498 446.556 824.59C444.044 825.628 441.15 826.147 437.874 826.147ZM483.199 826.147C479.104 826.147 475.473 825.246 472.306 823.444C469.193 821.587 466.763 819.021 465.016 815.745C463.269 812.468 462.395 808.673 462.395 804.36C462.395 800.046 463.242 796.278 464.934 793.056C466.682 789.78 469.084 787.241 472.142 785.439C475.254 783.583 478.831 782.654 482.872 782.654C486.858 782.654 490.325 783.583 493.274 785.439C496.277 787.296 498.598 789.917 500.236 793.302C501.929 796.633 502.775 800.537 502.775 805.015V806.243L501.547 807.472H466.572V800.264H498.844L494.666 801.902C494.557 799.445 493.956 797.343 492.864 795.596C491.827 793.848 490.435 792.51 488.687 791.582C486.994 790.599 485.083 790.108 482.954 790.108C480.66 790.108 478.558 790.654 476.647 791.746C474.736 792.838 473.234 794.367 472.142 796.333C471.105 798.244 470.586 800.483 470.586 803.049V805.506C470.586 808.018 471.132 810.284 472.224 812.304C473.316 814.27 474.818 815.826 476.729 816.973C478.64 818.12 480.797 818.693 483.199 818.693C485.493 818.693 487.513 818.12 489.261 816.973C491.062 815.772 492.482 814.188 493.52 812.223H494.503L501.137 815.089C499.553 818.529 497.205 821.232 494.093 823.198C490.981 825.164 487.349 826.147 483.199 826.147ZM566.477 825L545.754 769.385L545.263 767.665H553.454L575.241 824.345V825H566.477ZM523.476 825V824.345L545.263 767.665H553.454L552.798 769.385L532.076 825H523.476ZM532.485 810.83L534.943 802.967H564.511L566.968 810.83H532.485ZM594.054 841.381C588.594 841.381 584.335 840.289 581.277 838.105C578.219 835.921 576.69 832.972 576.69 829.259C576.69 826.802 577.291 824.672 578.492 822.87C579.748 821.014 581.577 819.594 583.98 818.611L588.075 822.297C586.928 822.789 586.027 823.553 585.372 824.59C584.717 825.573 584.389 826.665 584.389 827.867C584.389 829.669 585.099 831.198 586.519 832.454C587.993 833.764 590.205 834.419 593.153 834.419H598.887C601.89 834.419 604.211 833.928 605.849 832.945C607.542 832.017 608.388 830.624 608.388 828.768C608.388 827.348 607.815 826.229 606.668 825.41C605.576 824.645 603.965 824.263 601.835 824.263H591.188C588.894 824.263 586.819 823.881 584.963 823.116C583.161 822.297 581.741 821.178 580.704 819.758C579.666 818.338 579.147 816.7 579.147 814.844C579.147 812.878 579.721 811.13 580.867 809.602C582.069 808.018 583.843 806.762 586.191 805.834L590.614 809.602C589.249 809.765 588.212 810.257 587.502 811.076C586.847 811.895 586.519 812.769 586.519 813.697C586.519 814.898 586.983 815.826 587.911 816.482C588.894 817.137 590.287 817.465 592.089 817.465H602.491C606.641 817.465 609.917 818.502 612.319 820.577C614.777 822.597 616.005 825.3 616.005 828.686C616.005 832.563 614.449 835.648 611.337 837.941C608.224 840.235 604.047 841.381 598.805 841.381H594.054ZM596.675 811.977C593.344 811.977 590.423 811.349 587.911 810.093C585.399 808.837 583.434 807.117 582.014 804.933C580.649 802.694 579.966 800.155 579.966 797.316C579.966 794.422 580.649 791.882 582.014 789.698C583.434 787.459 585.399 785.739 587.911 784.538C590.423 783.282 593.344 782.654 596.675 782.654C600.006 782.654 602.9 783.282 605.357 784.538C607.869 785.739 609.835 787.459 611.255 789.698C612.674 791.882 613.384 794.422 613.384 797.316C613.384 800.155 612.674 802.694 611.255 804.933C609.835 807.117 607.869 808.837 605.357 810.093C602.9 811.349 600.006 811.977 596.675 811.977ZM596.675 805.179C599.351 805.179 601.508 804.469 603.146 803.049C604.839 801.575 605.685 799.664 605.685 797.316C605.685 794.968 604.839 793.084 603.146 791.664C601.508 790.19 599.351 789.453 596.675 789.453C593.945 789.453 591.761 790.19 590.123 791.664C588.485 793.084 587.666 794.968 587.666 797.316C587.666 799.664 588.485 801.575 590.123 803.049C591.761 804.469 593.945 805.179 596.675 805.179ZM608.306 789.371L602.982 786.504C602.982 784.265 603.446 782.272 604.375 780.525C605.303 778.723 606.531 777.33 608.06 776.347C609.644 775.31 611.391 774.791 613.302 774.791C613.848 774.791 614.367 774.819 614.859 774.873C615.405 774.873 615.814 774.928 616.087 775.037V782.163L615.678 783.064C615.132 782.9 614.449 782.818 613.63 782.818C611.883 782.818 610.545 783.446 609.617 784.702C608.743 785.903 608.306 787.459 608.306 789.371ZM639.809 826.147C635.714 826.147 632.083 825.246 628.916 823.444C625.803 821.587 623.373 819.021 621.626 815.745C619.879 812.468 619.005 808.673 619.005 804.36C619.005 800.046 619.851 796.278 621.544 793.056C623.292 789.78 625.694 787.241 628.752 785.439C631.864 783.583 635.441 782.654 639.482 782.654C643.468 782.654 646.935 783.583 649.884 785.439C652.887 787.296 655.208 789.917 656.846 793.302C658.539 796.633 659.385 800.537 659.385 805.015V806.243L658.156 807.472H623.182V800.264H655.454L651.276 801.902C651.167 799.445 650.566 797.343 649.474 795.596C648.437 793.848 647.044 792.51 645.297 791.582C643.604 790.599 641.693 790.108 639.564 790.108C637.27 790.108 635.168 790.654 633.257 791.746C631.346 792.838 629.844 794.367 628.752 796.333C627.715 798.244 627.196 800.483 627.196 803.049V805.506C627.196 808.018 627.742 810.284 628.834 812.304C629.926 814.27 631.428 815.826 633.339 816.973C635.25 818.12 637.407 818.693 639.809 818.693C642.103 818.693 644.123 818.12 645.871 816.973C647.672 815.772 649.092 814.188 650.13 812.223H651.113L657.747 815.089C656.163 818.529 653.815 821.232 650.703 823.198C647.591 825.164 643.959 826.147 639.809 826.147ZM667.03 825V783.801H674.811V794.858L672.6 794.121C673.419 791.773 674.647 789.753 676.285 788.06C677.924 786.313 679.835 784.975 682.019 784.047C684.258 783.118 686.633 782.654 689.145 782.654C692.093 782.654 694.742 783.282 697.09 784.538C699.438 785.794 701.294 787.678 702.659 790.19C704.024 792.647 704.707 795.732 704.707 799.445V825H696.516V801.739C696.516 798.954 696.107 796.742 695.288 795.104C694.469 793.411 693.349 792.183 691.93 791.418C690.564 790.654 688.954 790.272 687.097 790.272C685.24 790.272 683.384 790.736 681.527 791.664C679.725 792.592 678.224 794.039 677.023 796.005C675.821 797.971 675.221 800.537 675.221 803.704V825H667.03ZM727.377 825C723.609 825 720.552 823.799 718.204 821.396C715.91 818.994 714.764 815.745 714.764 811.649V772.907H722.954V810.912C722.954 813.151 723.473 814.816 724.51 815.908C725.603 816.946 727.268 817.465 729.507 817.465H734.094L734.503 818.366V825H727.377ZM707.72 791.336V783.801H734.503V791.336H707.72ZM764.233 825V779.378C764.233 775.283 765.38 772.034 767.673 769.631C770.021 767.229 773.106 766.027 776.929 766.027H781.925V772.662L781.516 773.563H778.649C776.465 773.563 774.881 774.054 773.898 775.037C772.915 775.965 772.424 777.549 772.424 779.788V825H764.233ZM757.189 791.336V783.801H781.925V791.336H757.189ZM804.557 826.147C800.462 826.147 796.858 825.218 793.745 823.362C790.633 821.505 788.176 818.966 786.374 815.745C784.626 812.468 783.753 808.673 783.753 804.36C783.753 800.1 784.626 796.333 786.374 793.056C788.176 789.78 790.633 787.241 793.745 785.439C796.858 783.583 800.462 782.654 804.557 782.654C808.652 782.654 812.256 783.583 815.369 785.439C818.481 787.241 820.911 789.78 822.658 793.056C824.46 796.333 825.361 800.1 825.361 804.36C825.361 808.673 824.46 812.468 822.658 815.745C820.911 819.021 818.481 821.587 815.369 823.444C812.256 825.246 808.652 826.147 804.557 826.147ZM804.557 818.529C807.069 818.529 809.253 817.956 811.109 816.809C813.021 815.663 814.495 814.025 815.532 811.895C816.625 809.765 817.171 807.281 817.171 804.441C817.171 801.493 816.625 798.981 815.532 796.906C814.495 794.776 813.021 793.138 811.109 791.992C809.253 790.79 807.069 790.19 804.557 790.19C802.045 790.19 799.834 790.79 797.922 791.992C796.066 793.138 794.592 794.776 793.5 796.906C792.462 798.981 791.943 801.465 791.943 804.36C791.943 807.254 792.462 809.765 793.5 811.895C794.592 814.025 796.066 815.663 797.922 816.809C799.834 817.956 802.045 818.529 804.557 818.529ZM832.977 825V783.801H840.758V794.858L838.547 794.121C839.639 790.954 841.496 788.442 844.117 786.586C846.792 784.729 849.85 783.801 853.29 783.801H857.304V791.336H851.98C849.795 791.336 847.884 791.855 846.246 792.893C844.663 793.875 843.407 795.268 842.478 797.07C841.605 798.872 841.168 801.001 841.168 803.459V825H832.977ZM926.778 825L908.923 767.665H917.277L934.068 823.28L934.805 825H926.778ZM926.778 825L927.188 823.28L943.16 767.665H951.596V768.321L934.805 825H926.778ZM891.395 825L874.604 768.321V767.665H883.04L899.012 823.28L899.421 825H891.395ZM891.395 825L892.05 823.28L908.923 767.665H917.277L899.421 825H891.395ZM958.343 825V766.027L966.288 765.044L966.534 765.7V794.858L963.913 794.121C964.732 791.773 965.96 789.753 967.598 788.06C969.237 786.313 971.148 784.975 973.332 784.047C975.571 783.118 977.946 782.654 980.458 782.654C983.406 782.654 986.055 783.282 988.403 784.538C990.751 785.794 992.607 787.678 993.972 790.19C995.338 792.647 996.02 795.732 996.02 799.445V825H987.829V801.739C987.829 798.954 987.42 796.742 986.601 795.104C985.782 793.411 984.662 792.183 983.243 791.418C981.878 790.654 980.267 790.272 978.41 790.272C976.554 790.272 974.697 790.736 972.84 791.664C971.039 792.592 969.537 794.039 968.336 796.005C967.134 797.971 966.534 800.537 966.534 803.704V825H958.343ZM1005.42 825V783.801H1013.62V825H1005.42ZM1009.52 776.921C1007.99 776.921 1006.71 776.402 1005.67 775.365C1004.63 774.272 1004.11 772.989 1004.11 771.515C1004.11 769.986 1004.63 768.703 1005.67 767.665C1006.71 766.628 1007.99 766.109 1009.52 766.109C1010.99 766.109 1012.25 766.628 1013.29 767.665C1014.38 768.703 1014.93 769.986 1014.93 771.515C1014.93 772.989 1014.38 774.272 1013.29 775.365C1012.25 776.402 1010.99 776.921 1009.52 776.921ZM1036.82 825C1033.05 825 1029.99 823.799 1027.64 821.396C1025.35 818.994 1024.2 815.745 1024.2 811.649V772.907H1032.39V810.912C1032.39 813.151 1032.91 814.816 1033.95 815.908C1035.04 816.946 1036.71 817.465 1038.95 817.465H1043.53L1043.94 818.366V825H1036.82ZM1017.16 791.336V783.801H1043.94V791.336H1017.16ZM1068.85 826.147C1064.75 826.147 1061.12 825.246 1057.95 823.444C1054.84 821.587 1052.41 819.021 1050.66 815.745C1048.92 812.468 1048.04 808.673 1048.04 804.36C1048.04 800.046 1048.89 796.278 1050.58 793.056C1052.33 789.78 1054.73 787.241 1057.79 785.439C1060.9 783.583 1064.48 782.654 1068.52 782.654C1072.5 782.654 1075.97 783.583 1078.92 785.439C1081.92 787.296 1084.24 789.917 1085.88 793.302C1087.58 796.633 1088.42 800.537 1088.42 805.015V806.243L1087.19 807.472H1052.22V800.264H1084.49L1080.31 801.902C1080.2 799.445 1079.6 797.343 1078.51 795.596C1077.47 793.848 1076.08 792.51 1074.33 791.582C1072.64 790.599 1070.73 790.108 1068.6 790.108C1066.31 790.108 1064.2 790.654 1062.29 791.746C1060.38 792.838 1058.88 794.367 1057.79 796.333C1056.75 798.244 1056.23 800.483 1056.23 803.049V805.506C1056.23 808.018 1056.78 810.284 1057.87 812.304C1058.96 814.27 1060.46 815.826 1062.38 816.973C1064.29 818.12 1066.44 818.693 1068.85 818.693C1071.14 818.693 1073.16 818.12 1074.91 816.973C1076.71 815.772 1078.13 814.188 1079.17 812.223H1080.15L1086.78 815.089C1085.2 818.529 1082.85 821.232 1079.74 823.198C1076.63 825.164 1073 826.147 1068.85 826.147ZM1139.59 826.147C1134.35 826.147 1129.68 824.918 1125.59 822.461C1121.54 819.949 1118.38 816.454 1116.08 811.977C1113.79 807.445 1112.64 802.203 1112.64 796.251C1112.64 790.353 1113.79 785.166 1116.08 780.689C1118.38 776.211 1121.57 772.744 1125.67 770.286C1129.82 767.775 1134.57 766.519 1139.92 766.519C1145.49 766.519 1150.38 767.938 1154.58 770.778C1158.79 773.617 1161.87 777.494 1163.84 782.409L1156.79 784.538L1155.89 784.374C1154.36 781.153 1152.21 778.695 1149.42 777.003C1146.69 775.255 1143.58 774.382 1140.08 774.382C1136.37 774.382 1133.07 775.283 1130.17 777.085C1127.28 778.887 1125.01 781.426 1123.37 784.702C1121.74 787.924 1120.92 791.773 1120.92 796.251C1120.92 800.728 1121.74 804.633 1123.37 807.963C1125.07 811.24 1127.36 813.779 1130.25 815.581C1133.2 817.383 1136.56 818.284 1140.33 818.284C1143.55 818.284 1146.47 817.546 1149.09 816.072C1151.77 814.543 1153.87 812.496 1155.4 809.929C1156.98 807.363 1157.77 804.441 1157.77 801.165V798.872L1161.13 801.165H1141.07V793.302H1164.33L1165.56 794.449V825H1158.02V812.141H1160.81C1159.49 815.253 1157.75 817.847 1155.56 819.922C1153.38 821.997 1150.92 823.553 1148.19 824.59C1145.46 825.628 1142.59 826.147 1139.59 826.147ZM1175.86 825V766.027L1183.81 765.044L1184.05 765.7V825H1175.86ZM1212.9 826.147C1208.8 826.147 1205.2 825.218 1202.09 823.362C1198.97 821.505 1196.52 818.966 1194.71 815.745C1192.97 812.468 1192.09 808.673 1192.09 804.36C1192.09 800.1 1192.97 796.333 1194.71 793.056C1196.52 789.78 1198.97 787.241 1202.09 785.439C1205.2 783.583 1208.8 782.654 1212.9 782.654C1216.99 782.654 1220.6 783.583 1223.71 785.439C1226.82 787.241 1229.25 789.78 1231 793.056C1232.8 796.333 1233.7 800.1 1233.7 804.36C1233.7 808.673 1232.8 812.468 1231 815.745C1229.25 819.021 1226.82 821.587 1223.71 823.444C1220.6 825.246 1216.99 826.147 1212.9 826.147ZM1212.9 818.529C1215.41 818.529 1217.59 817.956 1219.45 816.809C1221.36 815.663 1222.84 814.025 1223.87 811.895C1224.97 809.765 1225.51 807.281 1225.51 804.441C1225.51 801.493 1224.97 798.981 1223.87 796.906C1222.84 794.776 1221.36 793.138 1219.45 791.992C1217.59 790.79 1215.41 790.19 1212.9 790.19C1210.39 790.19 1208.17 790.79 1206.26 791.992C1204.41 793.138 1202.93 794.776 1201.84 796.906C1200.8 798.981 1200.28 801.465 1200.28 804.36C1200.28 807.254 1200.8 809.765 1201.84 811.895C1202.93 814.025 1204.41 815.663 1206.26 816.809C1208.17 817.956 1210.39 818.529 1212.9 818.529ZM1252.82 825L1253.4 820.004L1267.81 783.801H1276.25V784.456L1259.62 825H1252.82ZM1251.6 825L1234.97 784.456V783.801H1243.4L1257.82 820.004L1258.39 825H1251.6ZM1298.28 826.147C1294.19 826.147 1290.56 825.246 1287.39 823.444C1284.28 821.587 1281.85 819.021 1280.1 815.745C1278.35 812.468 1277.48 808.673 1277.48 804.36C1277.48 800.046 1278.32 796.278 1280.02 793.056C1281.76 789.78 1284.17 787.241 1287.22 785.439C1290.34 783.583 1293.91 782.654 1297.95 782.654C1301.94 782.654 1305.41 783.583 1308.36 785.439C1311.36 787.296 1313.68 789.917 1315.32 793.302C1317.01 796.633 1317.86 800.537 1317.86 805.015V806.243L1316.63 807.472H1281.65V800.264H1313.93L1309.75 801.902C1309.64 799.445 1309.04 797.343 1307.95 795.596C1306.91 793.848 1305.52 792.51 1303.77 791.582C1302.08 790.599 1300.17 790.108 1298.04 790.108C1295.74 790.108 1293.64 790.654 1291.73 791.746C1289.82 792.838 1288.32 794.367 1287.22 796.333C1286.19 798.244 1285.67 800.483 1285.67 803.049V805.506C1285.67 808.018 1286.21 810.284 1287.31 812.304C1288.4 814.27 1289.9 815.826 1291.81 816.973C1293.72 818.12 1295.88 818.693 1298.28 818.693C1300.58 818.693 1302.6 818.12 1304.34 816.973C1306.14 815.772 1307.56 814.188 1308.6 812.223H1309.58L1316.22 815.089C1314.64 818.529 1312.29 821.232 1309.18 823.198C1306.06 825.164 1302.43 826.147 1298.28 826.147ZM1365.18 826.147C1360.75 826.147 1356.93 825.273 1353.71 823.526C1350.49 821.724 1348 819.185 1346.26 815.908C1344.56 812.577 1343.72 808.619 1343.72 804.032V767.665H1351.91V804.196C1351.91 808.728 1353.03 812.223 1355.27 814.68C1357.56 817.082 1360.86 818.284 1365.18 818.284C1369.49 818.284 1372.77 817.082 1375.01 814.68C1377.3 812.223 1378.45 808.728 1378.45 804.196V767.665H1386.72V804.032C1386.72 808.619 1385.85 812.577 1384.1 815.908C1382.35 819.185 1379.87 821.724 1376.64 823.526C1373.42 825.273 1369.6 826.147 1365.18 826.147ZM1410.74 826.147C1406.32 826.147 1402.57 825.109 1399.52 823.034C1396.46 820.905 1394.44 817.983 1393.46 814.27L1400.91 812.386L1401.89 812.632C1402.44 814.543 1403.56 816.045 1405.25 817.137C1407 818.174 1409.02 818.693 1411.31 818.693C1413.55 818.693 1415.46 818.202 1417.05 817.219C1418.63 816.236 1419.42 814.925 1419.42 813.287C1419.42 811.922 1418.96 810.857 1418.03 810.093C1417.1 809.274 1415.71 808.646 1413.85 808.209L1406.15 806.489C1402.27 805.615 1399.38 804.196 1397.47 802.23C1395.56 800.21 1394.6 797.78 1394.6 794.94C1394.6 792.483 1395.29 790.353 1396.65 788.552C1398.02 786.695 1399.87 785.248 1402.22 784.21C1404.62 783.173 1407.33 782.654 1410.33 782.654C1414.59 782.654 1418.19 783.719 1421.14 785.849C1424.09 787.924 1426.03 790.872 1426.96 794.695L1419.75 796.251L1418.85 796.087C1418.36 794.23 1417.26 792.783 1415.57 791.746C1413.93 790.654 1412.08 790.108 1410 790.108C1407.98 790.108 1406.26 790.545 1404.84 791.418C1403.48 792.237 1402.79 793.329 1402.79 794.695C1402.79 795.787 1403.23 796.742 1404.1 797.561C1404.98 798.326 1406.32 798.899 1408.12 799.281L1415.9 801.083C1419.83 801.957 1422.75 803.349 1424.66 805.26C1426.63 807.172 1427.61 809.683 1427.61 812.796C1427.61 815.526 1426.87 817.901 1425.4 819.922C1423.98 821.888 1421.99 823.416 1419.42 824.509C1416.91 825.601 1414.01 826.147 1410.74 826.147ZM1453.29 826.147C1449.2 826.147 1445.57 825.246 1442.4 823.444C1439.29 821.587 1436.86 819.021 1435.11 815.745C1433.36 812.468 1432.49 808.673 1432.49 804.36C1432.49 800.046 1433.33 796.278 1435.03 793.056C1436.77 789.78 1439.18 787.241 1442.23 785.439C1445.35 783.583 1448.92 782.654 1452.96 782.654C1456.95 782.654 1460.42 783.583 1463.37 785.439C1466.37 787.296 1468.69 789.917 1470.33 793.302C1472.02 796.633 1472.87 800.537 1472.87 805.015V806.243L1471.64 807.472H1436.66V800.264H1468.94L1464.76 801.902C1464.65 799.445 1464.05 797.343 1462.96 795.596C1461.92 793.848 1460.53 792.51 1458.78 791.582C1457.09 790.599 1455.18 790.108 1453.05 790.108C1450.75 790.108 1448.65 790.654 1446.74 791.746C1444.83 792.838 1443.33 794.367 1442.23 796.333C1441.2 798.244 1440.68 800.483 1440.68 803.049V805.506C1440.68 808.018 1441.22 810.284 1442.32 812.304C1443.41 814.27 1444.91 815.826 1446.82 816.973C1448.73 818.12 1450.89 818.693 1453.29 818.693C1455.59 818.693 1457.61 818.12 1459.35 816.973C1461.16 815.772 1462.57 814.188 1463.61 812.223H1464.6L1471.23 815.089C1469.65 818.529 1467.3 821.232 1464.19 823.198C1461.07 825.164 1457.44 826.147 1453.29 826.147ZM1480.51 825V783.801H1488.29V794.858L1486.08 794.121C1487.17 790.954 1489.03 788.442 1491.65 786.586C1494.33 784.729 1497.39 783.801 1500.83 783.801H1504.84V791.336H1499.51C1497.33 791.336 1495.42 791.855 1493.78 792.893C1492.2 793.875 1490.94 795.268 1490.01 797.07C1489.14 798.872 1488.7 801.001 1488.7 803.459V825H1480.51ZM1563.58 825L1542.86 769.385L1542.37 767.665H1550.56L1572.35 824.345V825H1563.58ZM1520.58 825V824.345L1542.37 767.665H1550.56L1549.91 769.385L1529.18 825H1520.58ZM1529.59 810.83L1532.05 802.967H1561.62L1564.08 810.83H1529.59ZM1595.83 826.147C1591.68 826.147 1588.02 825.246 1584.85 823.444C1581.69 821.587 1579.2 819.021 1577.4 815.745C1575.65 812.468 1574.78 808.673 1574.78 804.36C1574.78 800.046 1575.65 796.278 1577.4 793.056C1579.2 789.78 1581.69 787.241 1584.85 785.439C1588.02 783.583 1591.68 782.654 1595.83 782.654C1599.05 782.654 1601.92 783.2 1604.43 784.292C1607 785.384 1609.18 786.995 1610.98 789.125C1612.78 791.2 1614.12 793.766 1615 796.824L1608.03 798.79H1607.13C1606.26 796.114 1604.79 794.012 1602.71 792.483C1600.69 790.954 1598.4 790.19 1595.83 790.19C1593.21 790.19 1590.94 790.79 1589.03 791.992C1587.12 793.193 1585.62 794.858 1584.53 796.988C1583.49 799.063 1582.97 801.52 1582.97 804.36C1582.97 807.199 1583.49 809.683 1584.53 811.813C1585.62 813.943 1587.12 815.608 1589.03 816.809C1590.94 817.956 1593.21 818.529 1595.83 818.529C1597.69 818.529 1599.38 818.202 1600.91 817.546C1602.44 816.891 1603.75 815.936 1604.84 814.68C1605.99 813.369 1606.86 811.813 1607.46 810.011H1608.36L1615.41 811.977C1614.42 815.035 1613 817.628 1611.15 819.758C1609.29 821.888 1607.08 823.498 1604.51 824.59C1602 825.628 1599.11 826.147 1595.83 826.147ZM1637.18 825C1633.41 825 1630.36 823.799 1628.01 821.396C1625.71 818.994 1624.57 815.745 1624.57 811.649V772.907H1632.76V810.912C1632.76 813.151 1633.28 814.816 1634.31 815.908C1635.41 816.946 1637.07 817.465 1639.31 817.465H1643.9L1644.31 818.366V825H1637.18ZM1617.52 791.336V783.801H1644.31V791.336H1617.52ZM1652.3 825V783.801H1660.49V825H1652.3ZM1656.39 776.921C1654.87 776.921 1653.58 776.402 1652.54 775.365C1651.51 774.272 1650.99 772.989 1650.99 771.515C1650.99 769.986 1651.51 768.703 1652.54 767.665C1653.58 766.628 1654.87 766.109 1656.39 766.109C1657.87 766.109 1659.12 766.628 1660.16 767.665C1661.25 768.703 1661.8 769.986 1661.8 771.515C1661.8 772.989 1661.25 774.272 1660.16 775.365C1659.12 776.402 1657.87 776.921 1656.39 776.921ZM1681.94 825L1682.51 820.004L1696.93 783.801H1705.37V784.456L1688.74 825H1681.94ZM1680.71 825L1664.08 784.456V783.801H1672.52L1686.94 820.004L1687.51 825H1680.71ZM1721.66 826.147C1718.88 826.147 1716.37 825.601 1714.13 824.509C1711.95 823.416 1710.23 821.915 1708.97 820.004C1707.71 818.038 1707.09 815.799 1707.09 813.287C1707.09 809.52 1708.4 806.516 1711.02 804.278C1713.64 801.984 1717.35 800.646 1722.16 800.264L1738.05 798.954V805.998L1723.55 807.144C1720.76 807.363 1718.72 807.963 1717.41 808.946C1716.1 809.929 1715.44 811.267 1715.44 812.96C1715.44 814.598 1716.15 815.963 1717.57 817.055C1718.99 818.093 1720.79 818.611 1722.98 818.611C1725.27 818.611 1727.34 818.065 1729.2 816.973C1731.11 815.881 1732.61 814.434 1733.71 812.632C1734.8 810.776 1735.34 808.782 1735.34 806.653V799.937C1735.34 797.043 1734.42 794.667 1732.56 792.811C1730.76 790.954 1728.35 790.026 1725.35 790.026C1722.84 790.026 1720.74 790.627 1719.04 791.828C1717.41 793.029 1716.31 794.613 1715.77 796.578H1714.87L1707.82 794.613C1708.91 790.954 1710.99 788.033 1714.05 785.849C1717.11 783.664 1720.87 782.572 1725.35 782.572C1731.08 782.572 1735.53 784.265 1738.7 787.651C1741.87 790.981 1743.45 795.677 1743.45 801.739V825H1735.92V813.042L1738.87 813.943C1738.21 816.181 1737.04 818.229 1735.34 820.086C1733.71 821.942 1731.71 823.416 1729.36 824.509C1727.02 825.601 1724.45 826.147 1721.66 826.147ZM1766.2 825C1762.43 825 1759.37 823.799 1757.02 821.396C1754.73 818.994 1753.58 815.745 1753.58 811.649V772.907H1761.77V810.912C1761.77 813.151 1762.29 814.816 1763.33 815.908C1764.42 816.946 1766.09 817.465 1768.32 817.465H1772.91L1773.32 818.366V825H1766.2ZM1746.54 791.336V783.801H1773.32V791.336H1746.54ZM1781.31 825V783.801H1789.5V825H1781.31ZM1785.41 776.921C1783.88 776.921 1782.6 776.402 1781.56 775.365C1780.52 774.272 1780 772.989 1780 771.515C1780 769.986 1780.52 768.703 1781.56 767.665C1782.6 766.628 1783.88 766.109 1785.41 766.109C1786.88 766.109 1788.14 766.628 1789.18 767.665C1790.27 768.703 1790.81 769.986 1790.81 771.515C1790.81 772.989 1790.27 774.272 1789.18 775.365C1788.14 776.402 1786.88 776.921 1785.41 776.921ZM1817.96 826.147C1813.86 826.147 1810.26 825.218 1807.15 823.362C1804.04 821.505 1801.58 818.966 1799.78 815.745C1798.03 812.468 1797.16 808.673 1797.16 804.36C1797.16 800.1 1798.03 796.333 1799.78 793.056C1801.58 789.78 1804.04 787.241 1807.15 785.439C1810.26 783.583 1813.86 782.654 1817.96 782.654C1822.06 782.654 1825.66 783.583 1828.77 785.439C1831.88 787.241 1834.31 789.78 1836.06 793.056C1837.86 796.333 1838.76 800.1 1838.76 804.36C1838.76 808.673 1837.86 812.468 1836.06 815.745C1834.31 819.021 1831.88 821.587 1828.77 823.444C1825.66 825.246 1822.06 826.147 1817.96 826.147ZM1817.96 818.529C1820.47 818.529 1822.66 817.956 1824.51 816.809C1826.42 815.663 1827.9 814.025 1828.94 811.895C1830.03 809.765 1830.57 807.281 1830.57 804.441C1830.57 801.493 1830.03 798.981 1828.94 796.906C1827.9 794.776 1826.42 793.138 1824.51 791.992C1822.66 790.79 1820.47 790.19 1817.96 790.19C1815.45 790.19 1813.24 790.79 1811.33 791.992C1809.47 793.138 1807.99 794.776 1806.9 796.906C1805.87 798.981 1805.35 801.465 1805.35 804.36C1805.35 807.254 1805.87 809.765 1806.9 811.895C1807.99 814.025 1809.47 815.663 1811.33 816.809C1813.24 817.956 1815.45 818.529 1817.96 818.529ZM1846.38 825V783.801H1854.16V794.858L1851.95 794.121C1852.77 791.773 1854 789.753 1855.64 788.06C1857.27 786.313 1859.19 784.975 1861.37 784.047C1863.61 783.118 1865.98 782.654 1868.5 782.654C1871.44 782.654 1874.09 783.282 1876.44 784.538C1878.79 785.794 1880.64 787.678 1882.01 790.19C1883.38 792.647 1884.06 795.732 1884.06 799.445V825H1875.87V801.739C1875.87 798.954 1875.46 796.742 1874.64 795.104C1873.82 793.411 1872.7 792.183 1871.28 791.418C1869.92 790.654 1868.3 790.272 1866.45 790.272C1864.59 790.272 1862.73 790.736 1860.88 791.664C1859.08 792.592 1857.57 794.039 1856.37 796.005C1855.17 797.971 1854.57 800.537 1854.57 803.704V825H1846.38Z" fill="white"/>
<path d="M839.216 299.377C834.655 299.377 830.319 298.482 826.205 296.694C822.092 294.906 818.471 292.447 815.341 289.317C812.211 286.187 809.752 282.566 807.964 278.453C806.175 274.339 805.281 270.002 805.281 265.442C805.281 260.792 806.175 256.366 807.964 252.163C809.752 247.961 812.211 244.294 815.341 241.165C818.471 238.035 822.092 235.621 826.205 233.922C830.319 232.133 834.655 231.239 839.216 231.239C843.866 231.239 848.292 232.133 852.494 233.922C856.697 235.621 860.363 238.035 863.493 241.165C866.623 244.294 869.037 247.961 870.736 252.163C872.524 256.366 873.419 260.792 873.419 265.442C873.419 270.002 872.524 274.339 870.736 278.453C869.037 282.566 866.623 286.187 863.493 289.317C860.363 292.447 856.697 294.906 852.494 296.694C848.292 298.482 843.866 299.377 839.216 299.377ZM839.216 243.177C833.225 243.177 828.083 245.323 823.791 249.615C821.734 251.672 820.125 254.086 818.962 256.858C817.8 259.63 817.219 262.491 817.219 265.442C817.219 268.393 817.8 271.21 818.962 273.892C820.125 276.575 821.734 278.944 823.791 281.001C825.848 283.058 828.173 284.667 830.766 285.83C833.448 286.992 836.265 287.573 839.216 287.573C842.167 287.573 845.028 286.992 847.8 285.83C850.572 284.667 852.942 283.058 854.909 281.001C856.876 278.944 858.441 276.575 859.603 273.892C860.766 271.21 861.347 268.393 861.347 265.442C861.347 262.491 860.766 259.63 859.603 256.858C858.441 254.086 856.876 251.672 854.909 249.615C852.942 247.558 850.572 245.993 847.8 244.92C845.117 243.758 842.256 243.177 839.216 243.177Z" fill="white"/>
<path d="M917.077 297.545C916.801 298.246 916.125 298.706 915.372 298.706H906.466C905.713 298.706 905.037 298.246 904.761 297.545L879.782 234.146C879.308 232.944 880.194 231.642 881.487 231.642H890.294C891.044 231.642 891.719 232.1 891.997 232.798L910.986 280.599L929.843 232.802C930.119 232.102 930.795 231.642 931.548 231.642H940.351C941.644 231.642 942.53 232.944 942.056 234.146L917.077 297.545Z" fill="white"/>
<path d="M959.946 270.271C959.946 272.417 960.706 274.652 962.226 276.977C963.836 279.302 965.669 281.269 967.726 282.879C971.481 285.83 975.863 287.305 980.87 287.305C988.312 287.305 994.464 283.943 999.325 277.218C999.901 276.423 1000.99 276.164 1001.83 276.665L1008.9 280.853C1009.79 281.376 1010.07 282.525 1009.5 283.375C1006.2 288.251 1002.25 292.065 997.636 294.816C992.539 297.856 986.951 299.377 980.87 299.377C976.31 299.377 971.973 298.527 967.86 296.828C963.746 295.04 960.125 292.581 956.995 289.451C953.866 286.321 951.407 282.7 949.618 278.587C947.919 274.473 947.07 270.137 947.07 265.576C947.07 261.016 947.919 256.679 949.618 252.566C951.407 248.363 953.866 244.697 956.995 241.567C960.036 238.438 963.612 236.023 967.726 234.324C971.928 232.625 976.31 231.776 980.87 231.776C985.431 231.776 989.767 232.625 993.881 234.324C998.083 236.023 1001.7 238.438 1004.75 241.567C1011.36 248.363 1014.67 256.232 1014.67 265.174C1014.67 266.307 1014.6 267.484 1014.47 268.706C1014.37 269.607 1013.6 270.271 1012.69 270.271H959.946ZM980.87 242.774C977.204 242.774 973.761 243.579 970.542 245.189C967.323 246.798 964.73 248.944 962.763 251.627C960.885 254.22 959.946 256.992 959.946 259.943H1001.79C1001.79 256.992 1000.81 254.22 998.843 251.627C996.966 248.944 994.417 246.798 991.198 245.189C987.979 243.579 984.536 242.774 980.87 242.774Z" fill="white"/>
<path d="M1058.82 244.031C1058.3 244.336 1057.67 244.363 1057.11 244.138C1055.32 243.408 1053.69 243.043 1052.22 243.043C1048.65 243.043 1045.7 244.294 1043.37 246.798C1040.87 249.481 1039.62 252.566 1039.62 256.053V296.873C1039.62 297.885 1038.8 298.706 1037.78 298.706H1029.91C1028.9 298.706 1028.08 297.885 1028.08 296.873V256.053C1028.08 251.224 1029.29 246.798 1031.7 242.774C1034.21 238.75 1037.6 235.621 1041.9 233.385C1045.12 231.865 1048.56 231.105 1052.22 231.105C1055.18 231.105 1057.99 231.642 1060.67 232.715C1062.72 233.533 1064.85 234.742 1067.05 236.341C1068.08 237.09 1067.96 238.632 1066.86 239.28L1058.82 244.031Z" fill="white"/>
<path d="M1123.26 298.706C1122.25 298.706 1121.43 297.885 1121.43 296.873V257.528C1121.43 253.326 1119.95 249.749 1117 246.798C1115.66 245.457 1114.05 244.384 1112.17 243.579C1110.39 242.774 1108.55 242.372 1106.67 242.372C1102.65 242.372 1099.16 243.847 1096.21 246.798C1093.26 249.749 1091.79 253.326 1091.79 257.528V296.873C1091.79 297.885 1090.97 298.706 1089.95 298.706H1081.82C1080.8 298.706 1079.98 297.885 1079.98 296.873V211.075C1079.98 210.063 1080.8 209.242 1081.82 209.242H1089.95C1090.97 209.242 1091.79 210.063 1091.79 211.075V236.336C1096.08 232.312 1101.04 230.3 1106.67 230.3C1110.25 230.3 1113.65 231.016 1116.87 232.446C1120.09 233.788 1122.95 235.71 1125.45 238.214C1127.87 240.718 1129.74 243.669 1131.09 247.066C1132.52 250.375 1133.23 253.862 1133.23 257.528V296.873C1133.23 297.885 1132.41 298.706 1131.4 298.706H1123.26Z" fill="white"/>
<path d="M1175.76 327.275C1170.66 327.275 1165.92 325.979 1161.54 323.386C1157.73 321.081 1154.34 317.859 1151.37 313.719C1150.76 312.863 1151.04 311.676 1151.95 311.15L1159.22 306.96C1160.07 306.47 1161.15 306.741 1161.73 307.53C1163.39 309.775 1165.29 311.529 1167.44 312.789C1170.04 314.399 1172.81 315.204 1175.76 315.204C1180.5 315.204 1184.61 313.46 1188.1 309.973C1189.71 308.363 1190.92 306.485 1191.72 304.339C1192.62 302.193 1193.06 299.913 1193.06 297.499V292.804C1191.01 294.95 1188.41 296.694 1185.28 298.035C1182.15 299.287 1178.98 299.913 1175.76 299.913C1171.83 299.913 1168.11 299.198 1164.63 297.767C1161.14 296.247 1158.06 294.146 1155.37 291.463C1152.6 288.78 1150.45 285.695 1148.93 282.208C1147.41 278.631 1146.65 274.876 1146.65 270.941V233.474C1146.65 232.462 1147.47 231.642 1148.49 231.642H1156.62C1157.64 231.642 1158.46 232.462 1158.46 233.474V270.137C1158.46 273.266 1159.22 276.217 1160.74 278.989C1162.35 281.672 1164.45 283.818 1167.04 285.427C1169.72 287.037 1172.63 287.842 1175.76 287.842C1178.89 287.842 1181.8 287.081 1184.48 285.561C1187.16 283.952 1189.26 281.806 1190.78 279.123C1192.3 276.351 1193.06 273.356 1193.06 270.137V233.474C1193.06 232.462 1193.88 231.642 1194.9 231.642H1203.03C1204.05 231.642 1204.87 232.462 1204.87 233.474V297.499C1204.87 301.523 1204.11 305.368 1202.59 309.034C1201.16 312.7 1199.1 315.874 1196.42 318.557C1193.64 321.329 1190.47 323.475 1186.89 324.995C1183.41 326.515 1179.69 327.275 1175.76 327.275Z" fill="white"/>
<path d="M1253.61 299.913C1248.51 299.913 1244.27 299.108 1240.87 297.499C1237.47 295.8 1234.39 293.162 1231.61 289.585V325.443C1231.61 326.455 1230.79 327.275 1229.78 327.275H1221.51C1220.5 327.275 1219.68 326.455 1219.68 325.443V235.084C1219.68 234.072 1220.5 233.251 1221.51 233.251H1229.78C1230.79 233.251 1231.61 234.072 1231.61 235.084V242.64C1234.39 239.242 1237.69 236.515 1241.54 234.458C1245.38 232.402 1249.41 231.373 1253.61 231.373C1258.17 231.373 1262.51 232.268 1266.62 234.056C1270.82 235.755 1274.44 238.214 1277.48 241.433C1280.61 244.652 1283.03 248.363 1284.73 252.566C1286.52 256.679 1287.41 261.061 1287.41 265.71C1287.41 270.36 1286.52 274.742 1284.73 278.855C1283.03 282.968 1280.61 286.634 1277.48 289.853C1274.44 292.983 1270.82 295.442 1266.62 297.231C1262.51 299.019 1258.17 299.913 1253.61 299.913ZM1253.61 243.579C1250.66 243.579 1247.84 244.16 1245.16 245.323C1242.48 246.396 1240.15 247.961 1238.19 250.017C1236.22 252.074 1234.65 254.488 1233.49 257.26C1232.33 259.943 1231.75 262.759 1231.75 265.71C1231.75 268.661 1232.33 271.478 1233.49 274.16C1234.65 276.843 1236.22 279.213 1238.19 281.269C1240.15 283.326 1242.48 284.935 1245.16 286.098C1247.84 287.26 1250.66 287.842 1253.61 287.842C1256.56 287.842 1259.38 287.26 1262.06 286.098C1264.74 284.935 1267.07 283.326 1269.03 281.269C1271 279.213 1272.52 276.843 1273.6 274.16C1274.76 271.478 1275.34 268.661 1275.34 265.71C1275.34 262.759 1274.76 259.943 1273.6 257.26C1272.52 254.488 1271 252.074 1269.03 250.017C1267.07 247.961 1264.74 246.396 1262.06 245.323C1259.38 244.16 1256.56 243.579 1253.61 243.579Z" fill="white"/>
<path d="M1312.32 270.271C1312.32 272.417 1313.08 274.652 1314.6 276.977C1316.21 279.302 1318.04 281.269 1320.1 282.879C1323.86 285.83 1328.24 287.305 1333.25 287.305C1340.69 287.305 1346.84 283.943 1351.7 277.218C1352.28 276.423 1353.36 276.164 1354.21 276.665L1361.28 280.853C1362.16 281.376 1362.45 282.525 1361.87 283.375C1358.58 288.251 1354.62 292.065 1350.01 294.816C1344.91 297.856 1339.33 299.377 1333.25 299.377C1328.69 299.377 1324.35 298.527 1320.24 296.828C1316.12 295.04 1312.5 292.581 1309.37 289.451C1306.24 286.321 1303.78 282.7 1301.99 278.587C1300.29 274.473 1299.45 270.137 1299.45 265.576C1299.45 261.016 1300.29 256.679 1301.99 252.566C1303.78 248.363 1306.24 244.697 1309.37 241.567C1312.41 238.438 1315.99 236.023 1320.1 234.324C1324.3 232.625 1328.69 231.776 1333.25 231.776C1337.81 231.776 1342.14 232.625 1346.26 234.324C1350.46 236.023 1354.08 238.438 1357.12 241.567C1363.74 248.363 1367.05 256.232 1367.05 265.174C1367.05 266.783 1366.91 268.482 1366.64 270.271H1312.32ZM1333.25 242.774C1329.58 242.774 1326.14 243.579 1322.92 245.189C1319.7 246.798 1317.11 248.944 1315.14 251.627C1313.26 254.22 1312.32 256.992 1312.32 259.943H1354.17C1354.17 256.992 1353.19 254.22 1351.22 251.627C1349.34 248.944 1346.79 246.798 1343.57 245.189C1340.35 243.579 1336.91 242.774 1333.25 242.774Z" fill="white"/>
<path d="M1435.84 298.706C1434.83 298.706 1434.01 297.885 1434.01 296.873V288.378C1431.14 291.776 1427.75 294.459 1423.81 296.426C1419.97 298.393 1415.94 299.377 1411.74 299.377C1407 299.377 1402.57 298.527 1398.46 296.828C1394.35 295.04 1390.77 292.536 1387.73 289.317C1384.6 286.098 1382.14 282.432 1380.35 278.318C1378.66 274.116 1377.81 269.689 1377.81 265.04C1377.81 260.39 1378.66 256.008 1380.35 251.895C1382.14 247.692 1384.6 243.981 1387.73 240.762C1390.77 237.543 1394.35 235.084 1398.46 233.385C1402.57 231.597 1407 230.703 1411.74 230.703C1416.39 230.703 1420.59 231.642 1424.35 233.519C1428.19 235.397 1431.41 237.99 1434.01 241.299V211.477C1434.01 210.465 1434.83 209.645 1435.84 209.645H1443.98C1444.99 209.645 1445.81 210.465 1445.81 211.477V296.873C1445.81 297.885 1444.99 298.706 1443.98 298.706H1435.84ZM1411.74 242.908C1408.79 242.908 1405.97 243.49 1403.29 244.652C1400.61 245.725 1398.28 247.29 1396.32 249.347C1394.35 251.403 1392.78 253.818 1391.62 256.59C1390.46 259.272 1389.88 262.089 1389.88 265.04C1389.88 271.031 1392.02 276.262 1396.32 280.733C1398.28 282.789 1400.61 284.399 1403.29 285.561C1405.97 286.724 1408.79 287.305 1411.74 287.305C1414.69 287.305 1417.51 286.724 1420.19 285.561C1422.96 284.399 1425.33 282.789 1427.3 280.733C1431.59 276.262 1433.74 271.031 1433.74 265.04C1433.74 262.089 1433.16 259.272 1431.99 256.59C1430.83 253.818 1429.27 251.403 1427.3 249.347C1425.33 247.29 1422.96 245.725 1420.19 244.652C1417.51 243.49 1414.69 242.908 1411.74 242.908Z" fill="white"/>
<path d="M1550.71 298.121L1540.03 267.491H1512.93L1502.25 298.121H1489.87L1519.97 211.205H1532.99L1563.08 298.121H1550.71ZM1526.48 228.091L1516.58 256.495H1536.25L1526.48 228.091Z" fill="white"/>
<path d="M1576.06 298.121V211.074H1587V298.121H1576.06Z" fill="white"/>
<path fill-rule="evenodd" clip-rule="evenodd" d="M744.94 267.884C744.94 303.813 715.813 332.94 679.884 332.94C643.954 332.94 614.828 303.813 614.828 267.884C614.828 231.954 643.954 202.828 679.884 202.828C715.813 202.828 744.94 231.954 744.94 267.884ZM757.767 267.884C757.767 310.898 722.898 345.767 679.884 345.767C636.87 345.767 602 310.898 602 267.884C602 224.87 636.87 190 679.884 190C722.898 190 757.767 224.87 757.767 267.884ZM680.301 216.587C677.019 216.357 674.173 218.83 673.943 222.111C673.712 225.393 676.186 228.239 679.467 228.47C687.532 229.036 696.624 231.243 703.806 236.889C710.761 242.356 716.62 251.586 717.459 267.735C717.63 271.02 720.431 273.544 723.716 273.374C727.001 273.203 729.525 270.402 729.355 267.117C728.361 247.99 721.164 235.382 711.167 227.524C701.399 219.846 689.645 217.243 680.301 216.587Z" fill="url(#paint2_linear_455_2)"/>
</g>
<defs>
<linearGradient id="paint0_linear_455_2" x1="1094" y1="0" x2="1094" y2="1000" gradientUnits="userSpaceOnUse">
<stop stop-color="#34A974"/>
<stop offset="1" stop-color="#524C91"/>
</linearGradient>
<linearGradient id="paint1_linear_455_2" x1="2271.21" y1="625.929" x2="1771.15" y2="1189.88" gradientUnits="userSpaceOnUse">
<stop stop-color="white"/>
<stop offset="1" stop-color="white" stop-opacity="0.9"/>
</linearGradient>
<linearGradient id="paint2_linear_455_2" x1="728.905" y1="210.158" x2="624.907" y2="327.442" gradientUnits="userSpaceOnUse">
<stop stop-color="white"/>
<stop offset="1" stop-color="white" stop-opacity="0.9"/>
</linearGradient>
<clipPath id="clip0_455_2">
<rect width="2188" height="1000" fill="white"/>
</clipPath>
</defs>
</svg>
