<svg width="2188" height="1000" viewBox="0 0 2188 1000" fill="none" xmlns="http://www.w3.org/2000/svg">
<g clip-path="url(#clip0_387_80)">
<rect width="2188" height="1000" fill="url(#paint0_linear_387_80)"/>
<path d="M334.308 541L298.888 445.94L298.048 443H312.048L349.288 539.88V541H334.308ZM260.808 541V539.88L298.048 443H312.048L310.928 445.94L275.508 541H260.808ZM276.208 516.78L280.408 503.34H330.948L335.148 516.78H276.208ZM388.165 542.96C381.072 542.96 374.818 541.42 369.405 538.34C363.992 535.167 359.745 530.78 356.665 525.18C353.678 519.58 352.185 513.093 352.185 505.72C352.185 498.347 353.678 491.907 356.665 486.4C359.745 480.8 363.992 476.46 369.405 473.38C374.818 470.207 381.072 468.62 388.165 468.62C393.672 468.62 398.572 469.553 402.865 471.42C407.252 473.287 410.985 476.04 414.065 479.68C417.145 483.227 419.432 487.613 420.925 492.84L409.025 496.2H407.485C405.992 491.627 403.472 488.033 399.925 485.42C396.472 482.807 392.552 481.5 388.165 481.5C383.685 481.5 379.812 482.527 376.545 484.58C373.278 486.633 370.712 489.48 368.845 493.12C367.072 496.667 366.185 500.867 366.185 505.72C366.185 510.573 367.072 514.82 368.845 518.46C370.712 522.1 373.278 524.947 376.545 527C379.812 528.96 383.685 529.94 388.165 529.94C391.338 529.94 394.232 529.38 396.845 528.26C399.458 527.14 401.698 525.507 403.565 523.36C405.525 521.12 407.018 518.46 408.045 515.38H409.585L421.625 518.74C419.945 523.967 417.518 528.4 414.345 532.04C411.172 535.68 407.392 538.433 403.005 540.3C398.712 542.073 393.765 542.96 388.165 542.96ZM457.584 541C451.144 541 445.917 538.947 441.904 534.84C437.984 530.733 436.024 525.18 436.024 518.18V451.96H450.024V516.92C450.024 520.747 450.911 523.593 452.684 525.46C454.551 527.233 457.397 528.12 461.224 528.12H469.064L469.764 529.66V541H457.584ZM423.984 483.46V470.58H469.764V483.46H423.984ZM482.165 541V470.58H496.165V541H482.165ZM489.165 458.82C486.552 458.82 484.358 457.933 482.585 456.16C480.812 454.293 479.925 452.1 479.925 449.58C479.925 446.967 480.812 444.773 482.585 443C484.358 441.227 486.552 440.34 489.165 440.34C491.685 440.34 493.832 441.227 495.605 443C497.472 444.773 498.405 446.967 498.405 449.58C498.405 452.1 497.472 454.293 495.605 456.16C493.832 457.933 491.685 458.82 489.165 458.82ZM531.57 541L532.55 532.46L557.19 470.58H571.61V471.7L543.19 541H531.57ZM529.47 541L501.05 471.7V470.58H515.47L540.11 532.46L541.09 541H529.47ZM598.21 542.96C593.45 542.96 589.156 542.027 585.33 540.16C581.596 538.293 578.656 535.727 576.51 532.46C574.363 529.1 573.29 525.273 573.29 520.98C573.29 514.54 575.53 509.407 580.01 505.58C584.49 501.66 590.836 499.373 599.05 498.72L626.21 496.48V508.52L601.43 510.48C596.67 510.853 593.17 511.88 590.93 513.56C588.69 515.24 587.57 517.527 587.57 520.42C587.57 523.22 588.783 525.553 591.21 527.42C593.636 529.193 596.716 530.08 600.45 530.08C604.37 530.08 607.916 529.147 611.09 527.28C614.356 525.413 616.923 522.94 618.79 519.86C620.656 516.687 621.59 513.28 621.59 509.64V498.16C621.59 493.213 620.003 489.153 616.83 485.98C613.75 482.807 609.643 481.22 604.51 481.22C600.216 481.22 596.623 482.247 593.73 484.3C590.93 486.353 589.063 489.06 588.13 492.42H586.59L574.55 489.06C576.416 482.807 579.963 477.813 585.19 474.08C590.416 470.347 596.856 468.48 604.51 468.48C614.31 468.48 621.916 471.373 627.33 477.16C632.743 482.853 635.45 490.88 635.45 501.24V541H622.57V520.56L627.61 522.1C626.49 525.927 624.483 529.427 621.59 532.6C618.79 535.773 615.383 538.293 611.37 540.16C607.356 542.027 602.97 542.96 598.21 542.96ZM673.064 541C666.624 541 661.397 538.947 657.384 534.84C653.464 530.733 651.504 525.18 651.504 518.18V451.96H665.504V516.92C665.504 520.747 666.39 523.593 668.164 525.46C670.03 527.233 672.877 528.12 676.704 528.12H684.544L685.244 529.66V541H673.064ZM639.464 483.46V470.58H685.244V483.46H639.464ZM726.55 542.96C719.55 542.96 713.344 541.42 707.93 538.34C702.61 535.167 698.457 530.78 695.47 525.18C692.484 519.58 690.99 513.093 690.99 505.72C690.99 498.347 692.437 491.907 695.33 486.4C698.317 480.8 702.424 476.46 707.65 473.38C712.97 470.207 719.084 468.62 725.99 468.62C732.804 468.62 738.73 470.207 743.77 473.38C748.904 476.553 752.87 481.033 755.67 486.82C758.564 492.513 760.01 499.187 760.01 506.84V508.94L757.91 511.04H698.13V498.72H753.29L746.15 501.52C745.964 497.32 744.937 493.727 743.07 490.74C741.297 487.753 738.917 485.467 735.93 483.88C733.037 482.2 729.77 481.36 726.13 481.36C722.21 481.36 718.617 482.293 715.35 484.16C712.084 486.027 709.517 488.64 707.65 492C705.877 495.267 704.99 499.093 704.99 503.48V507.68C704.99 511.973 705.924 515.847 707.79 519.3C709.657 522.66 712.224 525.32 715.49 527.28C718.757 529.24 722.444 530.22 726.55 530.22C730.47 530.22 733.924 529.24 736.91 527.28C739.99 525.227 742.417 522.52 744.19 519.16H745.87L757.21 524.06C754.504 529.94 750.49 534.56 745.17 537.92C739.85 541.28 733.644 542.96 726.55 542.96ZM803.093 541V443H817.093V541H803.093ZM810.233 541V527.56H866.793V541H810.233ZM810.233 498.02V484.58H863.293V498.02H810.233ZM810.233 456.44V443H866.793V456.44H810.233ZM901.957 541L902.937 532.46L927.577 470.58H941.997V471.7L913.577 541H901.957ZM899.857 541L871.437 471.7V470.58H885.857L910.497 532.46L911.477 541H899.857ZM978.397 542.96C971.397 542.96 965.191 541.42 959.777 538.34C954.457 535.167 950.304 530.78 947.317 525.18C944.331 519.58 942.837 513.093 942.837 505.72C942.837 498.347 944.284 491.907 947.177 486.4C950.164 480.8 954.271 476.46 959.497 473.38C964.817 470.207 970.931 468.62 977.837 468.62C984.651 468.62 990.577 470.207 995.617 473.38C1000.75 476.553 1004.72 481.033 1007.52 486.82C1010.41 492.513 1011.86 499.187 1011.86 506.84V508.94L1009.76 511.04H949.977V498.72H1005.14L997.997 501.52C997.811 497.32 996.784 493.727 994.917 490.74C993.144 487.753 990.764 485.467 987.777 483.88C984.884 482.2 981.617 481.36 977.977 481.36C974.057 481.36 970.464 482.293 967.197 484.16C963.931 486.027 961.364 488.64 959.497 492C957.724 495.267 956.837 499.093 956.837 503.48V507.68C956.837 511.973 957.771 515.847 959.637 519.3C961.504 522.66 964.071 525.32 967.337 527.28C970.604 529.24 974.291 530.22 978.397 530.22C982.317 530.22 985.771 529.24 988.757 527.28C991.837 525.227 994.264 522.52 996.037 519.16H997.717L1009.06 524.06C1006.35 529.94 1002.34 534.56 997.017 537.92C991.697 541.28 985.491 542.96 978.397 542.96ZM1023.66 541V470.58H1036.96V489.48L1033.18 488.22C1035.05 482.807 1038.22 478.513 1042.7 475.34C1047.28 472.167 1052.5 470.58 1058.38 470.58H1065.24V483.46H1056.14C1052.41 483.46 1049.14 484.347 1046.34 486.12C1043.64 487.8 1041.49 490.18 1039.9 493.26C1038.41 496.34 1037.66 499.98 1037.66 504.18V541H1023.66ZM1081.36 569V567.88L1092.84 541L1097.88 530.22L1122.1 470.58H1136.52V471.7L1095.64 569H1081.36ZM1092.84 541L1064.7 471.7V470.58H1079.12L1103.48 532.46V541H1092.84ZM1142.68 542.26C1139.88 542.26 1137.54 541.327 1135.68 539.46C1133.81 537.593 1132.88 535.307 1132.88 532.6C1132.88 529.8 1133.81 527.467 1135.68 525.6C1137.54 523.733 1139.88 522.8 1142.68 522.8C1145.29 522.8 1147.53 523.733 1149.4 525.6C1151.26 527.467 1152.2 529.8 1152.2 532.6C1152.2 535.307 1151.26 537.593 1149.4 539.46C1147.53 541.327 1145.29 542.26 1142.68 542.26ZM1231.49 542.96C1224.77 542.96 1218.7 541.747 1213.29 539.32C1207.88 536.893 1203.35 533.487 1199.71 529.1C1196.16 524.713 1193.78 519.58 1192.57 513.7L1205.31 510.48L1206.85 510.76C1208.06 514.4 1209.84 517.667 1212.17 520.56C1214.6 523.36 1217.49 525.6 1220.85 527.28C1224.21 528.867 1227.85 529.66 1231.77 529.66C1235.78 529.66 1239.28 529.007 1242.27 527.7C1245.35 526.393 1247.78 524.62 1249.55 522.38C1251.32 520.047 1252.21 517.387 1252.21 514.4C1252.21 510.48 1251.09 507.447 1248.85 505.3C1246.61 503.153 1243.34 501.52 1239.05 500.4L1220.85 495.36C1212.82 493.213 1206.71 489.76 1202.51 485C1198.31 480.147 1196.21 474.547 1196.21 468.2C1196.21 462.88 1197.56 458.213 1200.27 454.2C1203.07 450.093 1206.94 446.873 1211.89 444.54C1216.84 442.207 1222.53 441.04 1228.97 441.04C1235.22 441.04 1240.82 442.207 1245.77 444.54C1250.81 446.78 1254.96 449.953 1258.23 454.06C1261.59 458.167 1263.78 463.067 1264.81 468.76L1252.49 471.42L1250.95 471.14C1249.74 465.913 1247.17 461.807 1243.25 458.82C1239.33 455.833 1234.52 454.34 1228.83 454.34C1223.42 454.34 1219.08 455.647 1215.81 458.26C1212.54 460.78 1210.91 464.093 1210.91 468.2C1210.91 471.653 1212.08 474.5 1214.41 476.74C1216.84 478.98 1220.29 480.753 1224.77 482.06L1242.97 486.96C1250.72 489.013 1256.64 492.327 1260.75 496.9C1264.95 501.473 1267.05 507.073 1267.05 513.7C1267.05 519.58 1265.56 524.713 1262.57 529.1C1259.58 533.487 1255.43 536.893 1250.11 539.32C1244.79 541.747 1238.58 542.96 1231.49 542.96ZM1279.82 541V470.58H1293.82V541H1279.82ZM1286.82 458.82C1284.21 458.82 1282.01 457.933 1280.24 456.16C1278.47 454.293 1277.58 452.1 1277.58 449.58C1277.58 446.967 1278.47 444.773 1280.24 443C1282.01 441.227 1284.21 440.34 1286.82 440.34C1289.34 440.34 1291.49 441.227 1293.26 443C1295.13 444.773 1296.06 446.967 1296.06 449.58C1296.06 452.1 1295.13 454.293 1293.26 456.16C1291.49 457.933 1289.34 458.82 1286.82 458.82ZM1309.56 541V470.58H1322.86V489.48L1319.08 488.22C1320.48 484.207 1322.58 480.753 1325.38 477.86C1328.18 474.873 1331.45 472.587 1335.18 471C1339.01 469.413 1343.07 468.62 1347.36 468.62C1352.4 468.62 1356.93 469.693 1360.94 471.84C1364.95 473.987 1368.13 477.207 1370.46 481.5C1372.79 485.7 1373.96 490.973 1373.96 497.32V541H1359.96V501.24C1359.96 496.48 1359.26 492.7 1357.86 489.9C1356.46 487.007 1354.55 484.907 1352.12 483.6C1349.79 482.293 1347.03 481.64 1343.86 481.64C1340.69 481.64 1337.51 482.433 1334.34 484.02C1331.26 485.607 1328.69 488.08 1326.64 491.44C1324.59 494.8 1323.56 499.187 1323.56 504.6V541H1309.56ZM1411.5 569C1402.17 569 1394.89 567.133 1389.66 563.4C1384.44 559.667 1381.82 554.627 1381.82 548.28C1381.82 544.08 1382.85 540.44 1384.9 537.36C1387.05 534.187 1390.18 531.76 1394.28 530.08L1401.28 536.38C1399.32 537.22 1397.78 538.527 1396.66 540.3C1395.54 541.98 1394.98 543.847 1394.98 545.9C1394.98 548.98 1396.2 551.593 1398.62 553.74C1401.14 555.98 1404.92 557.1 1409.96 557.1H1419.76C1424.9 557.1 1428.86 556.26 1431.66 554.58C1434.56 552.993 1436 550.613 1436 547.44C1436 545.013 1435.02 543.1 1433.06 541.7C1431.2 540.393 1428.44 539.74 1424.8 539.74H1406.6C1402.68 539.74 1399.14 539.087 1395.96 537.78C1392.88 536.38 1390.46 534.467 1388.68 532.04C1386.91 529.613 1386.02 526.813 1386.02 523.64C1386.02 520.28 1387 517.293 1388.96 514.68C1391.02 511.973 1394.05 509.827 1398.06 508.24L1405.62 514.68C1403.29 514.96 1401.52 515.8 1400.3 517.2C1399.18 518.6 1398.62 520.093 1398.62 521.68C1398.62 523.733 1399.42 525.32 1401 526.44C1402.68 527.56 1405.06 528.12 1408.14 528.12H1425.92C1433.02 528.12 1438.62 529.893 1442.72 533.44C1446.92 536.893 1449.02 541.513 1449.02 547.3C1449.02 553.927 1446.36 559.2 1441.04 563.12C1435.72 567.04 1428.58 569 1419.62 569H1411.5ZM1415.98 518.74C1410.29 518.74 1405.3 517.667 1401 515.52C1396.71 513.373 1393.35 510.433 1390.92 506.7C1388.59 502.873 1387.42 498.533 1387.42 493.68C1387.42 488.733 1388.59 484.393 1390.92 480.66C1393.35 476.833 1396.71 473.893 1401 471.84C1405.3 469.693 1410.29 468.62 1415.98 468.62C1421.68 468.62 1426.62 469.693 1430.82 471.84C1435.12 473.893 1438.48 476.833 1440.9 480.66C1443.33 484.393 1444.54 488.733 1444.54 493.68C1444.54 498.533 1443.33 502.873 1440.9 506.7C1438.48 510.433 1435.12 513.373 1430.82 515.52C1426.62 517.667 1421.68 518.74 1415.98 518.74ZM1415.98 507.12C1420.56 507.12 1424.24 505.907 1427.04 503.48C1429.94 500.96 1431.38 497.693 1431.38 493.68C1431.38 489.667 1429.94 486.447 1427.04 484.02C1424.24 481.5 1420.56 480.24 1415.98 480.24C1411.32 480.24 1407.58 481.5 1404.78 484.02C1401.98 486.447 1400.58 489.667 1400.58 493.68C1400.58 497.693 1401.98 500.96 1404.78 503.48C1407.58 505.907 1411.32 507.12 1415.98 507.12ZM1435.86 480.1L1426.76 475.2C1426.76 471.373 1427.56 467.967 1429.14 464.98C1430.73 461.9 1432.83 459.52 1435.44 457.84C1438.15 456.067 1441.14 455.18 1444.4 455.18C1445.34 455.18 1446.22 455.227 1447.06 455.32C1448 455.32 1448.7 455.413 1449.16 455.6V467.78L1448.46 469.32C1447.53 469.04 1446.36 468.9 1444.96 468.9C1441.98 468.9 1439.69 469.973 1438.1 472.12C1436.61 474.173 1435.86 476.833 1435.86 480.1ZM1458.88 541V440.2L1472.46 438.52L1472.88 439.64V541H1458.88ZM1520.92 542.96C1513.92 542.96 1507.72 541.42 1502.3 538.34C1496.98 535.167 1492.83 530.78 1489.84 525.18C1486.86 519.58 1485.36 513.093 1485.36 505.72C1485.36 498.347 1486.81 491.907 1489.7 486.4C1492.69 480.8 1496.8 476.46 1502.02 473.38C1507.34 470.207 1513.46 468.62 1520.36 468.62C1527.18 468.62 1533.1 470.207 1538.14 473.38C1543.28 476.553 1547.24 481.033 1550.04 486.82C1552.94 492.513 1554.38 499.187 1554.38 506.84V508.94L1552.28 511.04H1492.5V498.72H1547.66L1540.52 501.52C1540.34 497.32 1539.31 493.727 1537.44 490.74C1535.67 487.753 1533.29 485.467 1530.3 483.88C1527.41 482.2 1524.14 481.36 1520.5 481.36C1516.58 481.36 1512.99 482.293 1509.72 484.16C1506.46 486.027 1503.89 488.64 1502.02 492C1500.25 495.267 1499.36 499.093 1499.36 503.48V507.68C1499.36 511.973 1500.3 515.847 1502.16 519.3C1504.03 522.66 1506.6 525.32 1509.86 527.28C1513.13 529.24 1516.82 530.22 1520.92 530.22C1524.84 530.22 1528.3 529.24 1531.28 527.28C1534.36 525.227 1536.79 522.52 1538.56 519.16H1540.24L1551.58 524.06C1548.88 529.94 1544.86 534.56 1539.54 537.92C1534.22 541.28 1528.02 542.96 1520.92 542.96ZM1573.22 542.26C1570.42 542.26 1568.09 541.327 1566.22 539.46C1564.36 537.593 1563.42 535.307 1563.42 532.6C1563.42 529.8 1564.36 527.467 1566.22 525.6C1568.09 523.733 1570.42 522.8 1573.22 522.8C1575.84 522.8 1578.08 523.733 1579.94 525.6C1581.81 527.467 1582.74 529.8 1582.74 532.6C1582.74 535.307 1581.81 537.593 1579.94 539.46C1578.08 541.327 1575.84 542.26 1573.22 542.26ZM1663.58 542.96C1656.02 542.96 1649.49 541.467 1643.98 538.48C1638.47 535.4 1634.23 531.06 1631.24 525.46C1628.35 519.767 1626.9 513 1626.9 505.16V443H1640.9V505.44C1640.9 513.187 1642.81 519.16 1646.64 523.36C1650.56 527.467 1656.21 529.52 1663.58 529.52C1670.95 529.52 1676.55 527.467 1680.38 523.36C1684.3 519.16 1686.26 513.187 1686.26 505.44V443H1700.4V505.16C1700.4 513 1698.91 519.767 1695.92 525.46C1692.93 531.06 1688.69 535.4 1683.18 538.48C1677.67 541.467 1671.14 542.96 1663.58 542.96ZM1740.2 542.96C1732.64 542.96 1726.24 541.187 1721.02 537.64C1715.79 534 1712.34 529.007 1710.66 522.66L1723.4 519.44L1725.08 519.86C1726.01 523.127 1727.92 525.693 1730.82 527.56C1733.8 529.333 1737.26 530.22 1741.18 530.22C1745 530.22 1748.27 529.38 1750.98 527.7C1753.68 526.02 1755.04 523.78 1755.04 520.98C1755.04 518.647 1754.24 516.827 1752.66 515.52C1751.07 514.12 1748.69 513.047 1745.52 512.3L1732.36 509.36C1725.73 507.867 1720.78 505.44 1717.52 502.08C1714.25 498.627 1712.62 494.473 1712.62 489.62C1712.62 485.42 1713.78 481.78 1716.12 478.7C1718.45 475.527 1721.62 473.053 1725.64 471.28C1729.74 469.507 1734.36 468.62 1739.5 468.62C1746.78 468.62 1752.94 470.44 1757.98 474.08C1763.02 477.627 1766.33 482.667 1767.92 489.2L1755.6 491.86L1754.06 491.58C1753.22 488.407 1751.35 485.933 1748.46 484.16C1745.66 482.293 1742.48 481.36 1738.94 481.36C1735.48 481.36 1732.54 482.107 1730.12 483.6C1727.78 485 1726.62 486.867 1726.62 489.2C1726.62 491.067 1727.36 492.7 1728.86 494.1C1730.35 495.407 1732.64 496.387 1735.72 497.04L1749.02 500.12C1755.74 501.613 1760.73 503.993 1764 507.26C1767.36 510.527 1769.04 514.82 1769.04 520.14C1769.04 524.807 1767.78 528.867 1765.26 532.32C1762.83 535.68 1759.42 538.293 1755.04 540.16C1750.74 542.027 1745.8 542.96 1740.2 542.96ZM1811.67 542.96C1804.67 542.96 1798.46 541.42 1793.05 538.34C1787.73 535.167 1783.58 530.78 1780.59 525.18C1777.6 519.58 1776.11 513.093 1776.11 505.72C1776.11 498.347 1777.56 491.907 1780.45 486.4C1783.44 480.8 1787.54 476.46 1792.77 473.38C1798.09 470.207 1804.2 468.62 1811.11 468.62C1817.92 468.62 1823.85 470.207 1828.89 473.38C1834.02 476.553 1837.99 481.033 1840.79 486.82C1843.68 492.513 1845.13 499.187 1845.13 506.84V508.94L1843.03 511.04H1783.25V498.72H1838.41L1831.27 501.52C1831.08 497.32 1830.06 493.727 1828.19 490.74C1826.42 487.753 1824.04 485.467 1821.05 483.88C1818.16 482.2 1814.89 481.36 1811.25 481.36C1807.33 481.36 1803.74 482.293 1800.47 484.16C1797.2 486.027 1794.64 488.64 1792.77 492C1791 495.267 1790.11 499.093 1790.11 503.48V507.68C1790.11 511.973 1791.04 515.847 1792.91 519.3C1794.78 522.66 1797.34 525.32 1800.61 527.28C1803.88 529.24 1807.56 530.22 1811.67 530.22C1815.59 530.22 1819.04 529.24 1822.03 527.28C1825.11 525.227 1827.54 522.52 1829.31 519.16H1830.99L1842.33 524.06C1839.62 529.94 1835.61 534.56 1830.29 537.92C1824.97 541.28 1818.76 542.96 1811.67 542.96ZM1856.94 541V470.58H1870.24V489.48L1866.46 488.22C1868.32 482.807 1871.5 478.513 1875.98 475.34C1880.55 472.167 1885.78 470.58 1891.66 470.58H1898.52V483.46H1889.42C1885.68 483.46 1882.42 484.347 1879.62 486.12C1876.91 487.8 1874.76 490.18 1873.18 493.26C1871.68 496.34 1870.94 499.98 1870.94 504.18V541H1856.94ZM1910.25 542.26C1907.45 542.26 1905.12 541.327 1903.25 539.46C1901.39 537.593 1900.45 535.307 1900.45 532.6C1900.45 529.8 1901.39 527.467 1903.25 525.6C1905.12 523.733 1907.45 522.8 1910.25 522.8C1912.87 522.8 1915.11 523.733 1916.97 525.6C1918.84 527.467 1919.77 529.8 1919.77 532.6C1919.77 535.307 1918.84 537.593 1916.97 539.46C1915.11 541.327 1912.87 542.26 1910.25 542.26Z" fill="white"/>
<g opacity="0.2">
<path fill-rule="evenodd" clip-rule="evenodd" d="M2101.61 280.833C2110.65 280.867 2115.9 270.632 2110.61 263.308L1947.52 37.6338C1940.39 27.7672 1924.88 34.9923 1927.84 46.7989L1964.28 191.885H1868.07C1859.05 191.885 1853.83 202.102 1859.11 209.41L2022.21 435.097C2029.34 444.964 2044.85 437.738 2041.89 425.931L2029.46 376.456L2014.58 317.232L2005.35 280.472L2101.61 280.833ZM2007.95 262.241L2007.93 264.008H1982.39L1984.41 272.074C1984.46 272.252 1984.51 272.428 1984.56 272.602L1996.89 321.676L2011.77 380.901L2015.08 394.089L1882.14 210.125H1968.86L1976.28 239.677L1969.98 208.246H1987.2L1984.82 198.783L1983.09 191.885H1983.08L1954.64 78.6334L2087.55 262.54L2007.95 262.241Z" fill="white"/>
<rect x="1934.36" y="228.1" width="16.3491" height="16.3491" rx="1.45923" fill="white"/>
<rect x="2021.36" y="228.1" width="16.3491" height="16.3491" rx="1.45923" fill="white"/>
<path d="M1984.28 264.009H1999.46L2003.26 278.606H1987.95L1984.28 264.009Z" fill="white" fill-opacity="0.6"/>
</g>
<g opacity="0.2">
<path fill-rule="evenodd" clip-rule="evenodd" d="M1805.05 951.109C1809.47 951.125 1812.04 946.12 1809.45 942.538L1708.8 803.266C1705.32 798.441 1697.73 801.974 1699.18 807.748L1722.09 898.98H1661.41C1657 898.98 1654.45 903.976 1657.03 907.55L1757.69 1046.83C1761.17 1051.65 1768.76 1048.12 1767.31 1042.35L1759.41 1010.92L1750.32 974.733L1744.33 950.881L1805.05 951.109ZM1742.08 941.939L1742.09 941.952L1798.17 942.163L1712.29 823.316L1731.29 898.98H1731.29L1732.14 902.353L1733.52 907.865H1724.15L1724.15 907.9H1668.29L1754.2 1026.77L1750.76 1013.1L1741.67 976.907L1734.18 947.071C1734.15 946.973 1734.12 946.874 1734.09 946.774L1732.88 941.939H1742.08Z" fill="white"/>
<rect x="1702.38" y="919.996" width="9.9904" height="9.9904" rx="0.7136" fill="white"/>
<rect x="1755.54" y="919.996" width="9.9904" height="9.9904" rx="0.7136" fill="white"/>
<path d="M1732.89 941.939H1742.17L1744.48 950.859H1735.13L1732.89 941.939Z" fill="white" fill-opacity="0.6"/>
</g>
<g opacity="0.2">
<path fill-rule="evenodd" clip-rule="evenodd" d="M165.336 384.899C171.868 384.924 175.668 377.525 171.841 372.23L23.0567 166.35C17.9022 159.217 6.68904 164.44 8.83241 172.975L42.6995 307.839H-46.9964C-53.515 307.839 -57.29 315.225 -53.4719 320.508L95.3192 526.397C100.474 533.53 111.687 528.306 109.543 519.771L97.8739 473.321L84.4338 419.823L75.5756 384.562L165.336 384.899ZM72.2549 371.344L72.2598 371.364L155.171 371.675L28.207 195.989L56.295 307.839H56.3009L57.5537 312.826L59.6006 320.974H45.7391L45.7495 321.025H-36.8293L90.1647 496.753L85.0852 476.534L71.6452 423.035L60.5633 378.924C60.519 378.781 60.4784 378.637 60.4417 378.491L58.647 371.344H72.2549Z" fill="white"/>
<rect x="13.5654" y="338.906" width="14.7684" height="14.7684" rx="1.05488" fill="white"/>
<rect x="92.1543" y="338.906" width="14.7684" height="14.7684" rx="1.05488" fill="white"/>
<path d="M58.6611 371.344H72.3746L75.803 384.53H61.9741L58.6611 371.344Z" fill="white" fill-opacity="0.6"/>
</g>
</g>
<defs>
<linearGradient id="paint0_linear_387_80" x1="1094" y1="0" x2="1094" y2="1000" gradientUnits="userSpaceOnUse">
<stop stop-color="#34A974"/>
<stop offset="1" stop-color="#524C91"/>
</linearGradient>
<clipPath id="clip0_387_80">
<rect width="2188" height="1000" fill="white"/>
</clipPath>
</defs>
</svg>
